/* XPM */
static char *result[] = {
/* columns rows colors chars-per-pixel */
"32 32 226 2 ",
"   c #F6530D",
".  c #F6560C",
"X  c #F6540E",
"o  c #F6560E",
"O  c #F6570E",
"+  c #F7590E",
"@  c #F7590F",
"#  c #F75A0E",
"$  c #F65B0E",
"%  c #F75A0F",
"&  c #F75B0F",
"*  c #F55E0F",
"=  c #F75B10",
"-  c #F75C10",
";  c #F65D10",
":  c #F75D10",
">  c #F75D11",
",  c #F55F10",
"<  c #F65E10",
"1  c #F65F10",
"2  c #F75E11",
"3  c #F75E12",
"4  c #F75F12",
"5  c #F85A10",
"6  c #F85B10",
"7  c #F2630F",
"8  c #F1650F",
"9  c #EF6A10",
"0  c #EF6C11",
"q  c #EF6D11",
"w  c #EE6E12",
"e  c #EE6F12",
"r  c #F36311",
"t  c #F56010",
"y  c #F56110",
"u  c #F46211",
"i  c #F46311",
"p  c #F76012",
"a  c #F76112",
"s  c #F36410",
"d  c #F26510",
"f  c #F36511",
"g  c #F16710",
"h  c #F26611",
"j  c #F26711",
"k  c #F56513",
"l  c #F86013",
"z  c #F86214",
"x  c #F86315",
"c  c #F86516",
"v  c #F16811",
"b  c #F16911",
"n  c #F06A11",
"m  c #F16A11",
"M  c #F76F16",
"N  c #F96816",
"B  c #F86C15",
"V  c #F86E15",
"C  c #F86618",
"Z  c #F96718",
"A  c #F96619",
"S  c #F9691A",
"D  c #F96A1A",
"F  c #F86B1A",
"G  c #F96A1B",
"H  c #F96F18",
"J  c #FA6B1D",
"K  c #F96D1C",
"L  c #FA6F1C",
"P  c #FA6E1D",
"I  c #EB7111",
"U  c #EB7210",
"Y  c #EB7211",
"T  c #EC7111",
"R  c #EC7211",
"E  c #EC7311",
"W  c #ED7012",
"Q  c #ED7112",
"!  c #EC7212",
"~  c #EC7312",
"^  c #EB7411",
"/  c #EB7412",
"(  c #EC7412",
")  c #EC7413",
"_  c #EF7114",
"`  c #ED7514",
"'  c #ED7515",
"]  c #EF7415",
"[  c #EE7616",
"{  c #EE7717",
"}  c #EF7717",
"|  c #EE7817",
" . c #EF7818",
".. c #F17217",
"X. c #F17617",
"o. c #F97017",
"O. c #F97317",
"+. c #F27119",
"@. c #F37219",
"#. c #F47119",
"$. c #F47219",
"%. c #F5701A",
"&. c #F27419",
"*. c #F97418",
"=. c #F97518",
"-. c #F07819",
";. c #F0781A",
":. c #F1781A",
">. c #F17A1B",
",. c #FB7321",
"<. c #F37E20",
"1. c #FB7824",
"2. c #FB7825",
"3. c #FC7A27",
"4. c #FC7B27",
"5. c #FC7F29",
"6. c #FA801C",
"7. c #F58123",
"8. c #F58124",
"9. c #F68124",
"0. c #F68025",
"q. c #F68224",
"w. c #F68225",
"e. c #F88427",
"r. c #F78A27",
"t. c #FC8028",
"y. c #FD8329",
"u. c #F88528",
"i. c #F88529",
"p. c #F88728",
"a. c #F9872A",
"s. c #F9872B",
"d. c #FD842B",
"f. c #FD852D",
"g. c #F88B28",
"h. c #F98B2A",
"j. c #FA8A2C",
"k. c #FD882F",
"l. c #FC892F",
"z. c #FA8D2C",
"x. c #FA9120",
"c. c #FB9723",
"v. c #FC9F25",
"b. c #FC9528",
"n. c #FD9E29",
"m. c #FC8B30",
"M. c #FF8B33",
"N. c #FD8C32",
"B. c #FE8C32",
"V. c #FE8D32",
"C. c #FE8D33",
"Z. c #FE8F33",
"A. c #FF8C35",
"S. c #FF8D35",
"D. c #FE8E34",
"F. c #FF8E34",
"G. c #FF8E35",
"H. c #FF8F35",
"J. c #FF8D36",
"K. c #FF8E36",
"L. c #FF8F36",
"P. c #FD9630",
"I. c #FF9035",
"U. c #FF9036",
"Y. c #FF9037",
"T. c #FF9535",
"R. c #FF9635",
"E. c #FE9E30",
"W. c #FF9D33",
"Q. c #FF9835",
"!. c #FF9935",
"~. c #FF9A35",
"^. c #FF9A36",
"/. c #FF9D35",
"(. c #FF9E34",
"). c #FF9F35",
"_. c #FCA029",
"`. c #FDA72C",
"'. c #FCAA29",
"]. c #FEB52F",
"[. c #FDB62E",
"{. c #FEB92F",
"}. c #FEA231",
"|. c #FFA335",
" X c #FFA734",
".X c #FFA635",
"XX c #FFA536",
"oX c #FEAB32",
"OX c #FEAC33",
"+X c #FFAA35",
"@X c #FFAB35",
"#X c #FFAB36",
"$X c #FFAC35",
"%X c #FFAE35",
"&X c #FFAD36",
"*X c #FFAF36",
"=X c #FFA238",
"-X c #FFAB38",
";X c #FEB135",
":X c #FEB335",
">X c #FFB635",
",X c #FFB735",
"<X c #FEBE30",
"1X c #FEBF31",
"2X c #FFBA36",
"3X c #FFBC35",
"4X c #FFBE34",
"5X c #FFB638",
"6X c #FEC031",
"7X c #FEC131",
"8X c #FEC332",
"9X c #FFC236",
"0X c #FFC435",
"qX c #FFC635",
"wX c #FFC735",
"eX c #FFC536",
"rX c #FFC835",
"tX c #FFCB34",
"yX c #FFCB35",
"uX c #FFCB37",
"iX c #FFCD35",
"pX c #FFCE35",
"aX c #FFD036",
"sX c #FFD336",
"dX c #FFD237",
"fX c None",
/* pixels */
"fXfXfXfXfXfXfXfXfXfXfXfXfXfXfXfXfXfXfXfXfXfXfXfXfXfXfXfXfXfXfXfX",
"fXfXfXfXfXfXfXfXfXfXfXfXfXfXfXfXfXfXfXfXfXfXfXfXfXfXfXfXfXfXfXfX",
"fXfXfXfXfXfXfXfXfXfXfXfXfXfXfXfXfXfXfXfXfXfXfXfXfXfXfXfXfXfXfXfX",
"fXfXfXfXfXfXfXfXfXfXfXfXfXfXfXfXfXfX- - fXfXfXfXfXfXfXfXfXfXfXfX",
"fXfXfXfXfXfXfXfXfXfXfXfXfXfXfXfXfXfX- - & fXfXfXfXfXfXfXfXfXfXfX",
"fXfXfXfXfXfXfXfXfXfXfXfXfXfXfXfXfXfXfX- c S fXfXfXfXfXfXfXfXfXfX",
"fXfXfXfXfXfXfX; > 3 p a fXfXfXfXfXfXfX> 2.5.z fXfXfXfXfXfXfXfXfX",
"fXfXfXfXfX- : g #.t.n.x.@ O fXfXfXfXfXfXD ,.4.G fXfXfXfXfXfXfXfX",
"fXfXfXfXfX- : d &.h.;X`.6.L A fXfXfXfXfX. S M.P + fXfXfXfXfXfXfX",
"fXfXfXfXfXfX- - s ] a. X4X(.1.l fXfXfXfX$ F k.K # fXfXfXfXfXfXfX",
"fXfXfXfXfXfXfXfX* i ..r.XX2X}.3.x fXfX- h _ :.k + fXfXfXfXfXfXfX",
"fXfXfXfXfXfXfXfXfX- 8 +.p.OX5XE.N fXfX- m ^ I %.J fXfXfXfXfXfXfX",
"fXfXfXfXfXfXfXfXfXfX= d [ s.@X].M fXfX1 n ) } z.y.4 fXfXfXfXfXfX",
"fXfXfXfXfXfXfXfXfXfX6 s ~ } g.P.X.7 t 0 T -.j.:X_.p fXfXfXfXfXfX",
"fXfXfXfXfXfXfXfXfXfX= f ! Y ;.0.7.@.b ! U >.Z.-Xb.-   fXfXfXfXfX",
"fXfXfXfXfXfXfXfXfXfX= f ~ ~ Y  .m.8.Y ~ ` <.C.Y.d.o.V B fXfXfXfX",
"fXfXfXfXfXfXfXfXfXfX= f ~ ~ Y  .m.9.Y ~ 7.N.G.S.W.{.<Xc.2 fXfXfX",
"fXfXfXfXfXfXfXfXfX< h q ~ ~ E ' <.9.w.w.l.^.%X!.R.*XuXv.% fXfXfX",
"fXfXfXfXfXfXfXfXfX< q / ~ ~ ~ ~ R w.Y.U.S./.3X+X~.).9X'.=.fXfXfX",
"fXfXfXfXfXfXfXfXfX< q ( ~ ~ ~ ~ ~ q.H.H.H.I.Q.>XwXqXyXtX[.O.fXfX",
"fXfXfXfXfXfXfXfXfX: 0 ( ~ ~ ~ ~ ~ -.w.D.U.G.G.).,XiXpXdX8X*.X fX",
"fXfXfXfXfXfXfXfX, r w ( ~ ~ ~ ~ ~ Y { i.V.U.H.A.|.yXpXaX6X*.X fX",
"fXfXfXfXfXfXfX6 i Q ~ ~ ~ ~ ~ ~ ~ ~ ~ ' e.H.H.S.|.rXiXaX6X*.X fX",
"fXfXfXfXfXfXfX6 r ~ ( ~ ~ ~ ~ ~ ~ ~ ~ E  .w.F.L.T..X0XsX6X*.X fX",
"fXfXfXfXfXfXfX6 r ~ ( ~ ~ ~ ~ ~ ~ ~ ~ ~ U } u.V.K.I.$XeX6X*.X fX",
"fXfXfXfXfXfXfX6 i Q ~ ~ ~ ~ ~ ~ ~ ~ ~ ~ ~ ~ ' u.F.H.H.&X1X*.X fX",
"fXfXfXfXfXfXfXfX1 i e / ( ( ( ( ( ~ ~ ~ ~ ~ ~ } w.H.J.#X7X=.X fX",
"fXfXfXfXfXfXfXfXfX- j n b b b b b e ( ~ ~ ~ ~ U  .e.B.=XoXH o fX",
"fXfXfXfXfXfXfXfXfXfX- - - - - - - v Q ~ ~ ~ ~ ~ E ' i.C.f.Z fXfX",
"fXfXfXfXfXfXfXfXfXfXfXfXfXfXfXfXfX1 f Q ( ~ ~ ~ ~ ~ | $.C fXfXfX",
"fXfXfXfXfXfXfXfXfXfXfXfXfXfXfXfXfX5 t W ( ~ ~ ~ ~ ! 9 7 fXfXfXfX",
"fXfXfXfXfXfXfXfXfXfXfXfXfXfXfXfXfX5 y W ( ~ ~ ~ ( Q u 6 fXfXfXfX"
};
