/* XPM */
static char *result[] = {
/* columns rows colors chars-per-pixel */
"35 35 46 1 ",
"  c #4E3221",
". c #543524",
"X c #583726",
"o c #5A3927",
"O c #5E3B28",
"+ c #683F27",
"@ c #613E2A",
"# c #66412C",
"$ c #6C432D",
"% c #7F4627",
"& c #72452D",
"* c #7F4728",
"= c #75482F",
"- c #7F492B",
"; c #6F4730",
": c #704730",
"> c #744A32",
", c #7B4D34",
"< c #7E5036",
"1 c #804B2C",
"2 c #814E32",
"3 c #835236",
"4 c #885437",
"5 c #845439",
"6 c #89573B",
"7 c #8D593D",
"8 c #925C3E",
"9 c #955E40",
"0 c #995F40",
"q c #976041",
"w c #9B6242",
"e c #A26645",
"r c #A66847",
"t c #A86947",
"y c #A76A48",
"u c #AC6C4A",
"i c #B06F4B",
"p c #B4714D",
"a c #B9744F",
"s c #BB7650",
"d c #BF7952",
"f c #C37B54",
"g c #C97F56",
"h c #CA8057",
"j c #CD8259",
"k c #D3855B",
/* pixels */
">$#Xo;6wewertrw7555555555678789wisd",
";;OoO>9yiiuiitw7555555655567779epfh",
">;@o#<wpdaasaie7556767665567768wahk",
";;##;5epaaaaaiw8668888866565558wahk",
">:;;>6epaaaasuw7679999976555536wpdh",
",>;><8rpaaaaspw9679www8765<55359wip",
"<<,<59ypsapspue76790w087555555567qw",
"353368rupiiiiuw76689998765555555666",
"55<569qqwwwyewq65699995955555<<953<",
"5555<5999999876655<6<95555559<<<533",
"99999965665555555555<555<<<<<5<5353",
"qyywwq65<<5<55555555555<<,<<<><<<33",
"ipfdpy965<555555555555<>>>;;;;>,<33",
"isfgfpq655355<3355<555<>;#;####;><<",
"qepggpw6<55533125<5555<>;#@OOO@##;;",
",5wsdpw655<3--11,<<555<,;#@XXXXXoO#",
"$=4upuq655331*%%13356665<=&#@o. .XO",
"+&30ww7653311%%%11368www9765=#X  .O",
"$&,5876555331*%%*337wuuuuyyw7&o  .O",
"&&><555555331111-138wuappaapw>@  .O",
"==,<<555555332123<38eiaaasspw>O  .O",
"33335555555333353358wiaaaaspw<O. XO",
"77889797665566663657wipaaaapw3#oo@#",
"wweeeewwq66677877667epaaaaspy6>$;:>",
"tupupiiuw7668qq8q667wupapappr83<<<<",
"ypaapapue86790wqq667weyuuuuuw963555",
"yppaaaape96780ww96667qww000q9766555",
"tiaaaappe8668qwqq76556666776665<5<5",
"ruaaaaape86679987663555566665<<<,<3",
"risaaappr83667676655<33566665<====-",
"0tpppppue83356656666666677773-=$&&=",
"68wewrte04333<<567qqwwwq88876=&$$$&",
"$&<<5788731111237wupppuwq9965,&+$+&",
"XO#;><544111%%237yshhhdyq9695,&&&&&",
" .o#;<<<1111%--38ufkkjdu99966<>;&=-"
};
