/* XPM */
static char *result[] = {
/* columns rows colors chars-per-pixel */
"32 32 125 2 ",
"   c #3A1A16",
".  c #3C1E18",
"X  c #44251C",
"o  c #51271F",
"O  c #50281F",
"+  c #66341F",
"@  c #4B2E20",
"#  c #522C21",
"$  c #5B2F25",
"%  c #4E3221",
"&  c #4B3922",
"*  c #533423",
"=  c #5B3326",
"-  c #513F25",
";  c #5B3A27",
":  c #5D3B28",
">  c #653722",
",  c #6D3B22",
"<  c #633729",
"1  c #633C2A",
"2  c #6A3E2C",
"3  c #27441A",
"4  c #2A401A",
"5  c #34431E",
"6  c #1C621D",
"7  c #3C4520",
"8  c #3C4E22",
"9  c #3C5123",
"0  c #3B5B24",
"q  c #276120",
"w  c #2C6A23",
"e  c #2C7425",
"r  c #277F26",
"t  c #474F25",
"y  c #4B4F24",
"u  c #594226",
"i  c #5C442A",
"p  c #445525",
"a  c #495423",
"s  c #425927",
"d  c #475A28",
"f  c #4A5C29",
"g  c #505329",
"h  c #565A2C",
"j  c #5C5D2F",
"k  c #66412C",
"l  c #6B422C",
"z  c #684D2F",
"x  c #7E4627",
"c  c #73462D",
"v  c #794629",
"b  c #76482F",
"n  c #7E492B",
"m  c #6F4630",
"M  c #724631",
"N  c #754A32",
"B  c #7B4D34",
"V  c #7E5036",
"C  c #4B632B",
"Z  c #4D682D",
"A  c #57612F",
"S  c #457A2E",
"D  c #5C6530",
"F  c #646232",
"G  c #616933",
"H  c #804B2D",
"J  c #814D33",
"K  c #894F39",
"L  c #815136",
"P  c #895437",
"I  c #845439",
"U  c #89563B",
"Y  c #8D593D",
"T  c #90553D",
"R  c #915C3E",
"E  c #995F3F",
"W  c #955E40",
"Q  c #966041",
"!  c #9C6243",
"~  c #A26645",
"^  c #A76947",
"/  c #AB6C49",
"(  c #B06F4C",
")  c #B3714D",
"_  c #B9744F",
"`  c #BC7651",
"'  c #BE7852",
"]  c #C07953",
"[  c #0E8C22",
"{  c #118421",
"}  c #0B9722",
"|  c #029A22",
" . c #0B9D24",
".. c #149525",
"X. c #159A26",
"o. c #169D28",
"O. c #1C9828",
"+. c #258326",
"@. c #2A8027",
"#. c #298628",
"$. c #308A2B",
"%. c #01A423",
"&. c #0DA125",
"*. c #01AC25",
"=. c #15A027",
"-. c #16A229",
";. c #1DA12A",
":. c #15AD2B",
">. c #00B426",
",. c #00BB27",
"<. c #01BE28",
"1. c #0EBB2B",
"2. c #15B52C",
"3. c #13BB2D",
"4. c #18BE2F",
"5. c #00C127",
"6. c #00C429",
"7. c #01CC2B",
"8. c #00D42C",
"9. c #00DC2E",
"0. c #00E02E",
"q. c #00E730",
"w. c #00EB31",
"e. c #CC8058",
"r. c #D2845B",
/* pixels */
",.>.%.| | %.>.<.,.,.,.<.,.,.<.,.,.,.,.>.>.*.>.5.9.9.6.,.,.,.,.,.",
"6.,.%.| | %.>.<.,.,.>.>.>.>.>.,.,.<.<.,.>.>.*.,.8.8.5.,.,.<.6.5.",
"9.7.*.| | %.,.<.5.>.%.%.%.*.>.,.,.<.<.,.>.*.>.>.5.6.<.,.,.6.8.9.",
"w.9.>.| [ { }  .>.>.%.| | %.,.,.&.X.X.&.*.>.>.>.>.,.,.>.>.<.7.8.",
"w.9.6.| q 5 4 6  .>.%.| | *.7.1.e 8 8 w &.,.,.,.,.,.>.>.%.%.*.*.",
"4.2.:.r 7 X   4 } ,.*.%.*.5.9.3.0 o O 8 X.,.,.,.,.,.>.*.%.| | | ",
"Z Z C a & X   3 } 5.,.<.7.9.w.3.0 o O 9 X.,.,.,.<.,.>.*.%.| | | ",
"2 2 2 1 * @ X 5 #.;.;.:.7.9.9.2.0 # # 9 X.,.,.>. .X.O.o. .%.%.%.",
"M M M 2 : * % - j D D S :.7.7.-.s = = 9 X.>.>. .w d h S o.>.>.>.",
"B B N M k : : k V K J D ;.<.5.X.d = = p ..,.>...8 $ 2 A o.6.<.<.",
"V V V B N N m N B W W j ;.5.6.o.d 1 < g X.>.>...t $ = d =.5.6.<.",
"V L L V V B N B K W V F $.-.o.#.g 1 1 g r X.X.r t = = t +.o.o.O.",
"L W V L V V B B B B N z h d f g i 1 1 i g f f g u : > u a a a a ",
"L V V W W W W W V M M m 2 2 2 2 2 k k 1 1 1 < 1 k k k k > + + + ",
"W W V W ) ' ' ( W B M N M M M M M M M m 1 1 1 : : k l c l + + , ",
"W W L W / ] ] ] W N V B B M N N N N B M k ; ; ; ; : k l v v x H ",
"Q U n n J E ' ' Q L L B v v v n V V V N l : * % % * * i M L P Y ",
"Y I b k k L ^ ( R V I J n x x n B I Y U L N m k * % % : M U Y E ",
"Q I b k l v U R U I I L n x x n L Y ~ ^ ^ ^ ~ U k % % : N U Y R ",
"Y I b c c b V I L I I I H n H H L R / _ _ _ _ ~ l % % : B U Y Y ",
"U I I V V V I I I I I I I L L L I R / _ _ _ ` ~ k % & : N I U U ",
"I I I I Y R Y R Y Y I I I I U P I R / _ _ _ _ ~ N ; ; k V I I I ",
"I I I Y ! / / / / ~ Y Y Y Q W R I Y / _ _ _ _ ^ U N B B V I I I ",
"I I V Y / _ _ ` ` / Y I Q ! E R U Y ~ / / / / ~ Y U I I I I I I ",
"I V M I / _ _ _ _ ^ R U R ! Q W Y I Y W R R R Y U I I I I I I I ",
"B b k B ~ _ _ _ _ / R P Y E Q R I I V L I I I I V V V L I I I I ",
": : * z ~ _ _ _ _ / R P I U U I I I L I U Y Y I N c c b V I I I ",
"% % * k Y ~ ~ / / ~ Y H L L I U W Q W E R R R U M l l c V I I I ",
"* % % ; 1 l B I Y Y H H H n V W / ' ' ) ! Y R U v k l c B I I I ",
"* * * * * ; l M L L H H H n L Q ' e.r.' ~ Y Y U B b c b L I I I ",
"* * * * % ; N V L L H H x H L Q ' r.r.] ! R Y Y U I L I L I I I ",
"* * * & % : B U I H H x H n V Q ' r.r.' ~ Y R R R Y I I I I I I "
};
