/* XPM */
static char *result[] = {
/* columns rows colors chars-per-pixel */
"32 32 142 2 ",
"   c #322616",
".  c #362E19",
"X  c #392819",
"o  c #2B3618",
"O  c #383F1E",
"+  c #421A19",
"@  c #44251C",
"#  c #4F2A1F",
"$  c #53211F",
"%  c #46311F",
"&  c #63361F",
"*  c #4C2E20",
"=  c #542A22",
"-  c #4C3121",
";  c #463C21",
":  c #4C3B23",
">  c #533423",
",  c #5C3126",
"<  c #553B26",
"1  c #5A3A27",
"2  c #5D3B28",
"3  c #642E27",
"4  c #653C25",
"5  c #6D3A22",
"6  c #65362A",
"7  c #633D2A",
"8  c #6A3D2B",
"9  c #703F2F",
"0  c #15751E",
"q  c #1A701F",
"w  c #3E5323",
"e  c #375E24",
"r  c #395C24",
"t  c #1B7420",
"y  c #147E20",
"u  c #1C7E23",
"i  c #2F6523",
"p  c #2B6C23",
"a  c #336524",
"s  c #3E6321",
"d  c #336B25",
"f  c #386A27",
"g  c #3F6A29",
"h  c #267123",
"j  c #297324",
"k  c #207F24",
"l  c #3B732A",
"z  c #4D4525",
"x  c #5C462A",
"c  c #554D29",
"v  c #584C2A",
"b  c #455326",
"n  c #485523",
"m  c #445C27",
"M  c #4A5528",
"N  c #495D29",
"B  c #505229",
"V  c #515F2C",
"C  c #65402B",
"Z  c #6C432C",
"A  c #61492D",
"S  c #6C482F",
"D  c #7E4527",
"F  c #72442C",
"G  c #7C4629",
"H  c #75482F",
"J  c #7E492C",
"K  c #6F4730",
"L  c #6C4E30",
"P  c #714630",
"I  c #754A32",
"U  c #7B4D34",
"Y  c #625B31",
"T  c #6E5D34",
"R  c #7E5036",
"E  c #436328",
"W  c #406B29",
"Q  c #814C2E",
"!  c #814E32",
"~  c #8D4C39",
"^  c #825237",
"/  c #8A5437",
"(  c #845439",
")  c #8A563B",
"_  c #8D593D",
"`  c #915C3E",
"'  c #965F41",
"]  c #976042",
"[  c #9B6242",
"{  c #A16545",
"}  c #A56847",
"|  c #A76948",
" . c #AD6D49",
".. c #B16F4B",
"X. c #B4714D",
"o. c #BA754F",
"O. c #BC7650",
"+. c #BF7953",
"@. c #C47C55",
"#. c #C97E57",
"$. c #1F8224",
"%. c #029721",
"&. c #0B9022",
"*. c #029C22",
"=. c #149425",
"-. c #199226",
";. c #149B27",
":. c #189C28",
">. c #268225",
",. c #2D8329",
"<. c #228F28",
"1. c #39812C",
"2. c #338D2C",
"3. c #229229",
"4. c #2C932C",
"5. c #259A2B",
"6. c #2F982E",
"7. c #02A323",
"8. c #09A325",
"9. c #02AC25",
"0. c #0AAC26",
"q. c #15A729",
"w. c #01B326",
"e. c #08B227",
"r. c #00BB27",
"t. c #06B628",
"y. c #03BC28",
"u. c #08BB29",
"i. c #14B62C",
"p. c #13B92C",
"a. c #43802F",
"s. c #00C227",
"d. c #00C329",
"f. c #00CB2B",
"g. c #01D42C",
"h. c #00D82C",
"j. c #00E12F",
"k. c #02E430",
"l. c #00EC31",
"z. c #CE8259",
"x. c #D2845B",
"c. c None",
/* pixels */
"c.c.c.c.c.c.c.c.c.c.c.c.c.c.c.c.c.c.c.c.c.c.c.c.c.c.c.c.c.c.c.c.",
"c.c.r.w.7.%.*.9.r.r.r.r.r.r.r.r.r.r.r.r.w.w.w.w.f.j.f.r.r.r.r.r.",
"c.c.f.y.7.%.*.w.r.r.r.w.w.9.r.r.r.r.r.d.r.9.9.w.d.g.f.r.y.r.f.f.",
"c.c.h.f.7.%.%.9.r.r.r.9.*.7.7.w.r.r.r.r.r.w.w.9.r.d.r.y.r.d.g.j.",
"c.c.l.h.r.&.t q $.*.r.7.%.%.7.d.u.-.>.$.=.w.r.r.w.r.w.r.9.w.d.f.",
"c.c.k.g.y.u O X o y r.9.7.%.9.g.p.r % ; p 9.r.r.r.r.r.w.7.7.7.7.",
"c.c.6.4.,.r % +   0 r.r.w.r.f.k.p.w $ # a 0.r.r.r.r.r.w.7.*.%.%.",
"c.c.A A x < - @ . q 0.t.u.f.k.k.i.w = - i 0.s.r.t.w.9.0.7.*.*.*.",
"c.c.P 9 8 7 > * - m a.1.2.p.g.g.q.b = > a 0.r.w.=.j l l q.9.9.9.",
"c.c.U I P Z 2 1 < K R R Y 5.d.d.:.b 3 > a 8.r.9.h : 8 Y 4.r.r.r.",
"c.c.U U U I K Z K R _ ~ T 5.d.d.;.M 6 2 f 0.r.9.h > 3 v 3.s.d.s.",
"c.c.^ ^ ( R U U I ( _ ~ T 2.0.0.3.M 6 7 E ;.0.;.d < , z >.0.0.0.",
"c.c.( ( ( R U U U R ^ I L V g g N x 7 7 v E g E B 2 1 x n s s E ",
"c.c.( ( ( ) _ ' ) R I I K 9 8 8 8 C C C 7 7 7 7 7 7 7 C 4 & & & ",
"c.c.' _ ' { O.O.X.' R I I I I P P P P P Z 7 6 7 7 7 Z F 5 & & 5 ",
"c.c._ ) ( [ X.#.#.} ^ U I I U P I I U I K 2 1 1 1 2 C Z G F D D ",
"c.c._ / J H (  .#.| ( R U H G D J U R U H C 1 > - > > 2 F R / _ ",
"c.c.` ^ Z 5 Z ` ..[ ( ^ ^ D D D G R ) ` ) R U Z 2 > * < P ( ` ` ",
"c.c.` ( F Z Z U _ _ ( ( ( Q D Q G ^ ` |  . . .{ U > - > P ( _ ` ",
"c.c._ ( I F F U ^ ^ ^ ( ( Q G Q ! ^ ` X.O.o.O.X.( > - < I ( _ _ ",
"c.c.( ( ( ( R ( ( ( ( ( ( ( ^ ( ( ( '  .o.o.O.X.( > - < P ( ( ( ",
"c.c.( ( ( _ ' [ [ ] ' _ ( ) _ _ ) ( ` X.o.o.o.X._ Z C Z R ( ( ( ",
"c.c.( ( ( '  .X...X. .' ) ` ] ` ` ) `  .o.o.X.X.[ ( R R ( ( ( ( ",
"c.c.( ^ U ' X.O.o.O.X.] ) ` [ [ ` ) _ [ [ { [ { ' ( ( ) ( ( ( ( ",
"c.c.( I K _  .O.X.o.X.' ) ` ] ] ' ( ( ( _ ( ( _ ( ( ( ( ( ( ( ( ",
"c.c.Z C 2 ( X.+.o.o.X.' ( ) _ _ _ ( R R ( ( _ ( R I H I ^ ( ( ( ",
"c.c.> - < I } X.X.X.X.` ( ^ ( ( ( ) _ _ _ _ _ _ U F Z F R ( ( ( ",
"c.c.> > > 2 U ^ _ ` ` / Q Q ! ^ ' | X. .} ' ' ` U Z 5 Z H ( ( ( ",
"c.c.> > > - > 7 K R ^ Q D Q G ^ ] +.z.z.X.] _ _ ^ F Z F R ( ( ( ",
"c.c.> > > > > C U ( R Q Q D Q ^ ] +.x.z.o.' _ _ ) ( ^ R ( ( ( ( ",
"c.c.> > > > > Z ( ( ^ Q D Q J ^ ] +.x.z.o.] _ ` ` _ ) ( ( ( ( ( ",
"c.c.c.c.c.c.c.c.c.c.c.c.c.c.c.c.c.c.c.c.c.c.c.c.c.c.c.c.c.c.c.c."
};
