/* XPM */
static char *result[] = {
/* columns rows colors chars-per-pixel */
"32 32 45 1 ",
"  c #4D3121",
". c #533423",
"X c #583725",
"o c #593926",
"O c #5E3C29",
"+ c #683E27",
"@ c #613E2A",
"# c #693F28",
"$ c #66412C",
"% c #6B422B",
"& c #7F4627",
"* c #71462D",
"= c #7F4728",
"- c #75482F",
"; c #7F4A2C",
": c #6E4630",
"> c #704730",
", c #754A32",
"< c #7B4D34",
"1 c #7F5036",
"2 c #814B2D",
"3 c #814E32",
"4 c #825236",
"5 c #895537",
"6 c #845439",
"7 c #89573B",
"8 c #8D593D",
"9 c #915C3E",
"0 c #955E40",
"q c #9A6142",
"w c #A16645",
"e c #A46847",
"r c #A96947",
"t c #AC6C4A",
"y c #B16F4C",
"u c #B4714D",
"i c #B9744F",
"p c #BC7651",
"a c #BF7953",
"s c #C57D55",
"d c #C87E56",
"f c #CE8259",
"g c #D1845A",
"h c #D8885D",
"j c None",
/* pixels */
"q0q95676666663=&24<*%%-4766666jj",
"qqq971,,,,<142&&24<*#%;7777666jj",
"0q996,OoOoO,42&&24<*%*<7787666jj",
"99981%.   .%6322244,-,67887667jj",
"6671,O....X,666457616580808666jj",
"666<:O.$<<18q76666667080qetq76jj",
"666<:Oo1tutut86667666070ydfaq6jj",
"666<:$@7uaiptq7778776778yghfq6jj",
"666<,::0yiuit0780q066667edfsq6jj",
"6661<,<quiipt070qq061666qetq01jj",
"6666616qtyyut07000016666666774jj",
"66666177qqqq06657706667666<;;3jj",
"016707066166666666611611742&&=jj",
"600qupiq71661666661,,,,,<422&&jj",
"001qudft01666444661:$$$$,<2222jj",
"01,,7edt1164;;3466<:OooXo@-455jj",
"85*+%7ue7642&2230061<:O. .:68qjj",
"95*%%1886742&&=40qyetq1. o:688jj",
"77--*<1116432=<30ypipp7o o:677jj",
"76441466667444660yiupu7. .:677jj",
"6667qqqq077770667tpipuq:@$,666jj",
"6660tuyytq7800060eppiuq1116666jj",
"6118uiuiuq78qqq77qqqqqq7676666jj",
"61:6tpipuq780q0767777776166667jj",
":$O1yaupiq7589761466776,,<1666jj",
". .,wuuuyq4467677770083*%%<666jj",
"  .O,6500522<37eyye0883%%%;666jj",
".....O:<43=&220pgfp0804*%*<767jj",
"...  $,1422&2<0aggaq89861<1666jj",
".....$1743&&=<0pggpq8999566766jj",
"jjjjjjjjjjjjjjjjjjjjjjjjjjjjjjjj",
"jjjjjjjjjjjjjjjjjjjjjjjjjjjjjjjj"
};
