/* XPM */
static char *result[] = {
/* columns rows colors chars-per-pixel */
"32 32 180 2 ",
"   c #010304",
".  c #1D0B02",
"X  c #1F110B",
"o  c #1D1005",
"O  c #1C1C1C",
"+  c #230D03",
"@  c #330F04",
"#  c #261204",
"$  c #391502",
"%  c #3C1906",
"&  c #361909",
"*  c #3D1A0A",
"=  c #371707",
"-  c #201D19",
";  c #3B2114",
":  c #27292D",
">  c #421E03",
",  c #431E08",
"<  c #541D04",
"1  c #411F11",
"2  c #611400",
"3  c #462204",
"4  c #4B2706",
"5  c #4A2905",
"6  c #462109",
"7  c #4A260C",
"8  c #4E290B",
"9  c #432906",
"0  c #532D0C",
"q  c #512806",
"w  c #56310C",
"e  c #5A350D",
"r  c #5E3807",
"t  c #472513",
"y  c #4C2A13",
"u  c #482A15",
"i  c #522F14",
"p  c #49361A",
"a  c #563212",
"s  c #5B3511",
"d  c #5D3813",
"f  c #53321B",
"g  c #59371E",
"h  c #5D3B1B",
"j  c #742401",
"k  c #7D2A00",
"l  c #643D0C",
"z  c #7A370A",
"x  c #682E14",
"c  c #633B15",
"v  c #623D1C",
"b  c #483221",
"n  c #583821",
"m  c #603B23",
"M  c #67440B",
"N  c #7C540D",
"B  c #65421F",
"V  c #68411D",
"C  c #6F4811",
"Z  c #734C12",
"A  c #7D5513",
"S  c #4F452C",
"D  c #584527",
"F  c #644224",
"G  c #694623",
"H  c #6C4B25",
"J  c #644629",
"K  c #664928",
"L  c #6B4B2B",
"P  c #714D2C",
"I  c #72542C",
"U  c #795927",
"Y  c #6D5E3A",
"T  c #755434",
"R  c #785737",
"E  c #7A5C37",
"W  c #7E5E3B",
"Q  c #745E38",
"!  c #74623B",
"~  c #7D6238",
"^  c #455059",
"/  c #7C6D40",
"(  c #7B7746",
")  c #7B7847",
"_  c #515D67",
"`  c #55636E",
"'  c #586671",
"]  c #64717C",
"[  c #8B3301",
"{  c #86370D",
"}  c #933300",
"|  c #903A00",
" . c #934C0A",
".. c #984602",
"X. c #82580F",
"o. c #8F4F17",
"O. c #875D15",
"+. c #8A5F16",
"@. c #865C19",
"#. c #995211",
"$. c #A24600",
"%. c #AB4D00",
"&. c #A94200",
"*. c #A65601",
"=. c #BA5C00",
"-. c #B25C01",
";. c #8E6318",
":. c #95691B",
">. c #BD6C01",
",. c #8E5424",
"<. c #815D35",
"1. c #866428",
"2. c #986F27",
"3. c #9E7224",
"4. c #81643C",
"5. c #856A3E",
"6. c #886439",
"7. c #A1772D",
"8. c #A07425",
"9. c #AA7F32",
"0. c #A57737",
"q. c #8A6D41",
"w. c #84774C",
"e. c #947A47",
"r. c #827251",
"t. c #A97640",
"y. c #AD853B",
"u. c #AB8136",
"i. c #B1883E",
"p. c #878352",
"a. c #8A8758",
"s. c #928D5D",
"d. c #AF8F49",
"f. c #A98847",
"g. c #B58D44",
"h. c #B38A47",
"j. c #BB934C",
"k. c #A28A50",
"l. c #B18C52",
"z. c #BB9552",
"x. c #918673",
"c. c #A19E6A",
"v. c #B69D6B",
"b. c #B69A68",
"n. c #A5A16F",
"m. c #B6A16F",
"M. c #A7A370",
"N. c #AAA674",
"B. c #AFAB79",
"V. c #B7A270",
"C. c #C39D56",
"Z. c #C49E5A",
"A. c #C8A35F",
"S. c #C4A96C",
"D. c #CFB579",
"F. c #D3B97D",
"G. c #677682",
"H. c #6B7C88",
"J. c #687985",
"K. c #778794",
"L. c #7F8F9C",
"P. c #7E909E",
"I. c #82929F",
"U. c #AA9D89",
"Y. c #BBB785",
"T. c #BBB99B",
"R. c #A8A78B",
"E. c #8999A6",
"W. c #8B9CAA",
"Q. c #8798A6",
"!. c #93A5B3",
"~. c #9BADBC",
"^. c #C2BE8C",
"/. c #C4C18D",
"(. c #C8C496",
"). c #E4E0B0",
"_. c #A0B2C0",
"`. c #DFDDC4",
"'. c #E4E2C4",
"]. c None",
/* pixels */
"].].].].].].].].].].].].].].].].].].].].].].].].].].].].].].].].",
"].].].].].].].].].].].].].].].].].].].].].].].].].].].].].].].].",
"].].].].].].].].].].].].].].].].].].].].].].].].].].].].].].].].",
"].].].].].s.p.].].].].].].].].].].].].].].].].].].].].].].].].].",
"].].].].c.B.a.].].].].@ = t ].].].].].) ].].].].].].].].].].].].",
"].].].) M.(.T.].].F g 3 h E 4.f u ].) N.s.].].].].].].].].].].].",
"].].].) M./.'.x.g W e.I i v q.5.L L s.^.R.].].].].].].].].G._ ].",
"].].].) M.Y.).'.Q P W k.I 0 H q.L R / ^.T.].].].].].].].G.E.].].",
"].].].].n.B.(.^.H V Q W e.h s T 4.J T U.R.].].].].].].` P.I.].].",
"].].].].p.N.M.~ d d V P 4.5.5 L 4.K c f ].].].].].].].J.W.] ].].",
"].].].].= Y Y 4 q d c c V I 9 s v s 0 0 ].].].].].].` P.L.].].].",
"].].].].$ 5 s 6 3 4 5 5 8 8 $ 5 c w % > @ ].].].].].J.W.] ].].].",
"].].].].$ 4 e V f t e d r e r p 7 7 m V , ].].].].` E.Q.].].].].",
"].].].].$ 5 c v R g U y.d.I S V.b.w.D m.].].].].].H.~.] ].].].].",
"].].].].$ 4 d c T g 1.d.V.! - V.F.r.- v.4.].].].' !.Q.].].].].].",
"].].].].].3 0 c H n ,.d.S.p X V.D.D X v.].].].].H.!.] ].].].].].",
"].].].].]., 3 e v G h U f.H b b.D.~ b b.P ].].` Q.Q.].].].].].].",
"].].].].N @.d 3 e v P n z  . .#.,.o. . .< ].].H.!.] ].].].].].].",
"].].].A 7.y.h.G , 0 c x [ $.%.$.[ | %...k ].' !.Q.].].].].].].].",
"].].N 7.g.i.g.z.U 0 , < j [ | *.>.-.k 2 ].].K._.] ].].].].].].].",
"].N :.3.3.:.y.g.C.l.<.6.{ &.%.=.=.$.j ].].O K.Q.].].].].].].].].",
"].].X.r c ;.8.9.h.j.C.S.0.{ [ } [ { 0 g J p : ^ ].].].].].].].].",
"].].].7 c 1.Z +.+.8.9.C.A.f.0.,.,.A & D q.4.#   ].].].].].].].].",
"].].@ 8 v e.U q l +.:.9.h.u.u.0.3.r , i P n ].].].].].].].].].].",
"].].@ s a G J + 9 9 M A 8.;.@.M M . + 6 0 , ].].].].].].].].].].",
"].].].7 , @ . . & o & 8 O.C w # ].].].+ ].].].].].].].].].].].].",
"].].].].].].; J u . + 7 l u * p I ].].].].].].].].].].].].].].].",
"].].].].].i K q.q.K # % 6 * f T 4.~ n ].].].].].].].].].].].].].",
"].].].]., s 0 d F V & . + % 0 h h a 0 ].].].].].].].].].].].].].",
"].].].].].7 6 , , , % ].].% 6 , , , ].].].].].].].].].].].].].].",
"].].].].].].].].].].].].].].].].].].].].].].].].].].].].].].].].",
"].].].].].].].].].].].].].].].].].].].].].].].].].].].].].].].]."
};
