/* XPM */
static char *result[] = {
/* columns rows colors chars-per-pixel */
"32 32 6 1 ",
"  c #442434",
". c #4E4A4E",
"X c #757161",
"o c #6DC2CA",
"O c #8595A1",
"+ c None",
/* pixels */
"++++++++XXXXXXXXXXXXXXXX++++++++",
"++++++++XXXXXXXXXXXXXXXX++++++++",
"++++XXXXOOooooooXXooooooXXXX++++",
"++++XXXXOOooooooXXooooooXXXX++++",
"++XXooOOXXOOOOOOXXOOOOOOXXooXX++",
"++XXooOOXXOOOOOOXXOOOOOOXXooXX++",
"XXOOOOOO                OOOOOOXX",
"XXOOOOOO                OOOOOOXX",
"XXOOOO                    OOOOXX",
"XXOOOO                    OOOOXX",
"XXXXXX                    XXXXXX",
"XXXXXX                    XXXXXX",
"XXOOOO                    OOOOXX",
"XXOOOO                    OOOOXX",
"XXOOOOoo                ooOOOOXX",
"XXOOOOoo                ooOOOOXX",
"..XXOOXXooooooXXooooooXXOOOOXX..",
"..XXOOXXooooooXXooooooXXOOOOXX..",
"..XXXX..OOOOOOXXOOOOOOOO..XXXX..",
"..XXXX..OOOOOOXXOOOOOOOO..XXXX..",
"....XX..XXXXXX..XXXXXXXX..XX....",
"....XX..XXXXXX..XXXXXXXX..XX....",
"..XX....XXXXXX..XXXXXXXX....XX..",
"..XX....XXXXXX..XXXXXXXX....XX..",
"  XX..XX................XX..XX  ",
"  XX..XX................XX..XX  ",
"++  ..XXXX..XXXXXX..XXXXXX..  ++",
"++  ..XXXX..XXXXXX..XXXXXX..  ++",
"++++    XX..XXXXXX..XXXX    ++++",
"++++    XX..XXXXXX..XXXX    ++++",
"++++++++                ++++++++",
"++++++++                ++++++++"
};
