/* XPM */
static char *result[] = {
/* columns rows colors chars-per-pixel */
"32 32 234 2 ",
"   c #986041",
".  c #935D3F",
"X  c #89573B",
"o  c #845439",
"O  c #855539",
"+  c #86553A",
"@  c #85553A",
"#  c #84553A",
"$  c #835135",
"%  c #804A2C",
"&  c #7F4727",
"*  c #814A2C",
"=  c #7F5036",
"-  c #73472E",
";  c #6C4129",
":  c #72462E",
">  c #7E4F35",
",  c #996041",
"<  c #945D3F",
"1  c #815238",
"2  c #7B4E35",
"3  c #784C34",
"4  c #7F4627",
"5  c #7E5036",
"6  c #73462E",
"7  c #805136",
"8  c #87563B",
"9  c #87563A",
"0  c #855439",
"q  c #996141",
"w  c #945E40",
"e  c #8A583C",
"r  c #67422C",
"t  c #5E3C28",
"y  c #68422D",
"u  c #7B4F35",
"i  c #845135",
"p  c #6B4129",
"a  c #74472E",
"s  c #855338",
"d  c #8E5A3D",
"f  c #8B583C",
"g  c #8F5A3D",
"h  c #734932",
"j  c #5C3A27",
"k  c #4F3222",
"l  c #4F3221",
"z  c #4E3221",
"x  c #5C3A28",
"c  c #774C33",
"v  c #845236",
"b  c #824D2F",
"n  c #814D2F",
"m  c #835236",
"M  c #805137",
"N  c #774A31",
"B  c #72462D",
"V  c #7C4D33",
"C  c #8A573A",
"Z  c #915C3E",
"A  c #905B3E",
"S  c #8C593C",
"D  c #835339",
"F  c #784D34",
"G  c #69432E",
"H  c #593826",
"J  c #503322",
"K  c #4E3121",
"L  c #5B3A27",
"P  c #764B33",
"I  c #845338",
"U  c #835338",
"Y  c #8F5B3E",
"T  c #8C583C",
"R  c #825338",
"E  c #835439",
"W  c #7E5037",
"Q  c #724931",
"!  c #64402B",
"~  c #573725",
"^  c #643F2B",
"/  c #6A432D",
"(  c #744931",
")  c #88563B",
"_  c #945D40",
"`  c #9C6243",
"'  c #9D6444",
"]  c #996142",
"[  c #915C3F",
"{  c #88573B",
"}  c #724932",
"|  c #563625",
" . c #633F2A",
".. c #A06544",
"X. c #9F6444",
"o. c #A26645",
"O. c #A96A48",
"+. c #B4724E",
"@. c #C07953",
"#. c #BF7952",
"$. c #AE6E4B",
"%. c #7E5137",
"&. c #65402C",
"*. c #5A3927",
"=. c #6F462F",
"-. c #BC7650",
";. c #BB7550",
":. c #BA754F",
">. c #AC6C49",
",. c #905C3E",
"<. c #88563A",
"1. c #D3855B",
"2. c #D4855B",
"3. c #BD7852",
"4. c #965F41",
"5. c #724831",
"6. c #68432D",
"7. c #64402C",
"8. c #794D34",
"9. c #A46746",
"0. c #B9744F",
"q. c #AB6C49",
"w. c #D4865B",
"e. c #704831",
"r. c #A76947",
"t. c #9A6142",
"y. c #AF6E4B",
"u. c #BE7852",
"i. c #825339",
"p. c #7D5036",
"a. c #8D593C",
"s. c #AA6B49",
"d. c #925C3F",
"f. c #976041",
"g. c #915D3F",
"h. c #8D593D",
"j. c #A16645",
"k. c #8F5B3D",
"l. c #825237",
"z. c #815035",
"x. c #815034",
"c. c #825135",
"v. c #8D5A3D",
"b. c #804C2F",
"n. c #7F492B",
"m. c #935E40",
"M. c #986042",
"N. c #7F5137",
"B. c #805238",
"V. c #B3714D",
"C. c #774C34",
"Z. c #845235",
"A. c #915B3E",
"S. c #8E593D",
"D. c #89563A",
"F. c #935C3E",
"G. c #C17952",
"H. c #CD8158",
"J. c #6A432E",
"K. c #734A32",
"L. c #7A4C32",
"P. c #7E4B2E",
"I. c #814B2C",
"U. c #834B2D",
"Y. c #834C2D",
"T. c #8A563A",
"R. c #784930",
"E. c #804E33",
"W. c #995F3F",
"Q. c #593926",
"!. c #67412B",
"~. c #865336",
"^. c #8A5538",
"/. c #8C5639",
"(. c #885539",
"). c #75482F",
"_. c #694028",
"`. c #683F28",
"'. c #7F4E33",
"]. c #AA6B48",
"[. c #B1704C",
"{. c #5D3B28",
"}. c #8E5A3E",
"|. c #6A4028",
" X c #76482F",
".X c #8C583B",
"XX c #825034",
"oX c #875539",
"OX c #794B31",
"+X c #71452D",
"@X c #764930",
"#X c #814C2F",
"$X c #804A2B",
"%X c #815137",
"&X c #7D4F35",
"*X c #815237",
"=X c #835136",
"-X c #825035",
";X c #86563A",
":X c #B9754F",
">X c #945E3F",
",X c #6F4630",
"<X c #8A573B",
"1X c #865439",
"2X c #774A30",
"3X c #513322",
"4X c #A16544",
"5X c #8D573A",
"6X c #825136",
"7X c #955E40",
"8X c #75472E",
"9X c #6B4029",
"0X c #513423",
"qX c #513323",
"wX c #8C593D",
"eX c #8D583A",
"rX c #844E31",
"tX c #815135",
"yX c #AF6F4C",
"uX c #B2704D",
"iX c #9B6243",
"pX c #523423",
"aX c #966041",
"sX c #D2855B",
"dX c #9F6545",
"fX c #8F5A3E",
"gX c #D2845B",
"hX c #855438",
"jX c #815136",
"kX c #7F492C",
"lX c #BC7752",
"zX c #D1845A",
"xX c #9F6445",
"cX c white",
/* pixels */
"      . X o O + + + + @ # $ % & & * $ = - ; ; : > o o o o o o o ",
"  , , < X 1 2 3 3 3 3 2 1 $ % 4 4 % $ 5 : ; ; 6 7 8 9 + 0 o o o ",
"  , q w e 2 r t t t t y u i * 4 4 % $ 5 : p p a s d d f + o o o ",
". . < g o h j k k l z x c v b % % n m M N B a V C Z A S + D o o ",
"X X X o F G H J k z K L P I v $ $ m I U 7 7 s C d A Y T O R E o ",
"o o o W Q ! ~ ~ ^ / / ( 9 d ) o o o o o o ) d Z A _ ` ' ] [ { E ",
"o o o W } ! |  .T ..X.o.O.o.d E E o o o o 9 d A Y ` +.@.#.$.[ R ",
"o o 0 %.} &.*.=.o.-.;.:.:.>.,.o 9 X X <.O + f S T ' @.1.2.3.4.R ",
"o o 0 W 5.6.7.8.9.:.:.0.0.q.A + g < < Y <.o + + O ] #.2.w.3.4.R ",
"o o o M P e.e.D r.0.0.0.0.q.A ) . t.t.< X E E D R [ y.u.u.$.[ i.",
"o o o U M p.p.a.s.:.0.0.0.q.A ) . t.t.< X E o o E { d.f.f.g.{ o ",
"o o o o o D U h.j.>.q.q.>.j.h.9 k.< < A ) o o o o o D l.z.x.c.$ ",
"o o o E D R R + h.Z Z ,.Z v.9 O 9 X X ) + o o 0 0 o E c.b.n.% % ",
"9 9 9 f m.M.f.[ 9 R U D D E o o o o o R N.W %.N.%.B.E $ % 4 4 4 ",
"h.h.h.t.V.@.#.$.[ R R E E o o o o o o N.P 5.} } } C.1 Z.* 4 4 4 ",
"A.S.D.F.>.G.H.#.f.R D I m $ $ m I o o p.e.6.&.! ! J.K.L.P.I.U.Y.",
"[ T.V R.E.W.G.@.M.R E m n % % n m o o p.e.7.*.| ~ Q.j !.L.~.^./.",
"[ (.)._.`.'.].[.. D E $ % 4 4 % c.8 d a.D 8.=. .~ J k {.C.{ }.[ ",
"[ (.).|.|. X.X. X o o $ % 4 4 n.XXd o.s.r.9.o.T ^ k k {.3 { }.[ ",
"d oXOXB +X@X> R D o o m #X$X$Xb.c.Z >.:.0.:.-.../ z l {.3 9 S h.",
"9 0 %X> &X5 *XR U E o I =X-X-Xc.l.Z q.0.0.:.;.X./ K z {.3 + 9 9 ",
"o o o ) d Z Z ,.Z v.9 O ) X X 9 o ,.q.0.0.0.:.o.( L j r 2 O o o ",
"o o o d o.>.q.q.>.j.h.9 Y w w k.+ A q.0.0.0.:.O.9 P c 2 1 o o o ",
"O R N.S s.:.0.0.0.q.A ) . t.t.. ) h.j.>.q.q.q.o.d O @ @ o o o o ",
"+ M P U r.0.0.0.0.q.A ) . t.t.< X ;Xh.Z A A A v.) @ @ @ o o o o ",
"8.Q y 8.9.:.:X0.0.q.,.9 Y >X>Xk.9 R R U 0 + + o 7 > > 7 U o o o ",
"t L ~ ,Xo.-.:.0.:.>.Z o 8 X X 9 o R 1 o <Xh.h.1XOXB B 2X7 o o o ",
"3XJ k ^ T o.9.r.s.4X5XXXXX6XU { [ 4.4.7Xd.A.[ (.8X9X9XB > 0 o o ",
"0XqXqX~ ^ ,X8.D wXeXrX$X$Xb.tXg.yXu.u.uXiXA A oX8X9X9XB > 0 o o ",
"pXpXpXqXk ~ y P N.c.% 4 4 n.x.aXu.sXsX@.dXfXA C V a 6 2X7 o o o ",
"pXpXpXqXJ L Q B.D c.% 4 4 n.x.aX3.gXgX@.dXg Y d <XhXjX7 U o o o ",
"pXpXpX0X3Xt 8.+ @ $ % & & kXx.4.lXzXzX#.xXg fXA [ d ) o o o o o "
};
