/* XPM */
static char *result[] = {
/* columns rows colors chars-per-pixel */
"32 32 173 2 ",
"   c #020304",
".  c #0A0506",
"X  c #03060A",
"o  c #0B0408",
"O  c #05090C",
"+  c #0A0C0E",
"@  c #140B0D",
"#  c #190D0E",
"$  c #1C110D",
"%  c #070C12",
"&  c #0A0E12",
"*  c #130F12",
"=  c #0D1014",
"-  c #0E1319",
";  c #111317",
":  c #1A1213",
">  c #11161B",
",  c #14191E",
"<  c #1D1A1A",
"1  c #230102",
"2  c #2B0303",
"3  c #200902",
"4  c #240A0B",
"5  c #2D0A0D",
"6  c #350201",
"7  c #380400",
"8  c #370904",
"9  c #3C0B0A",
"0  c #350F0B",
"q  c #2A1C0C",
"w  c #271519",
"e  c #221616",
"r  c #3B1518",
"t  c #33181B",
"y  c #3B1314",
"u  c #2B271E",
"i  c #2C281E",
"p  c #26241D",
"a  c #171C21",
"s  c #191E23",
"d  c #1A2026",
"f  c #1D2429",
"g  c #222227",
"h  c #222529",
"j  c #23292E",
"k  c #2C2A24",
"l  c #262C32",
"z  c #292E34",
"x  c #2A3036",
"c  c #2C3339",
"v  c #450404",
"b  c #4E0200",
"n  c #400D07",
"m  c #4A0A0C",
"M  c #4D0D02",
"N  c #540301",
"B  c #5B0303",
"V  c #510803",
"C  c #441507",
"Z  c #640200",
"A  c #6B0301",
"S  c #6C0D05",
"D  c #750400",
"F  c #7D0200",
"G  c #720B01",
"H  c #790801",
"J  c #791904",
"K  c #422B0C",
"L  c #542E18",
"P  c #622A0B",
"I  c #6F340F",
"U  c #72320E",
"Y  c #762A13",
"T  c #613812",
"R  c #713711",
"E  c #7E3712",
"W  c #6B4612",
"Q  c #66451F",
"!  c #744F16",
"~  c #79471B",
"^  c #775319",
"/  c #7C581C",
"(  c #4E4A3F",
")  c #7C4826",
"_  c #785B27",
"`  c #71572C",
"'  c #7E5928",
"]  c #675836",
"[  c #6E5F3F",
"{  c #665A3E",
"}  c #7D663E",
"|  c #840300",
" . c #8D0500",
".. c #830B01",
"X. c #8D0B01",
"o. c #920600",
"O. c #940B01",
"+. c #9C0C00",
"@. c #8A1303",
"#. c #861202",
"$. c #941303",
"%. c #9E1100",
"&. c #A10D01",
"*. c #A31101",
"=. c #AB1302",
"-. c #A11805",
";. c #AC1D03",
":. c #B41703",
">. c #B81705",
",. c #BD1A05",
"<. c #B71B09",
"1. c #BA1B08",
"2. c #B51A02",
"3. c #9E2204",
"4. c #8B3719",
"5. c #833312",
"6. c #A82A09",
"7. c #B72303",
"8. c #B92A08",
"9. c #BD3910",
"0. c #C81D06",
"q. c #C21908",
"w. c #C22103",
"e. c #C22E04",
"r. c #D3210B",
"t. c #C4330A",
"y. c #DD3806",
"u. c #D33508",
"i. c #D43D08",
"p. c #C63E11",
"a. c #804F15",
"s. c #904B13",
"d. c #864C28",
"f. c #834923",
"g. c #825F27",
"h. c #825E2D",
"j. c #8F5735",
"k. c #866224",
"l. c #8F6E2C",
"z. c #8B6930",
"x. c #8A6A3D",
"c. c #916E30",
"v. c #977735",
"b. c #9D7B3E",
"n. c #C54113",
"m. c #D84510",
"M. c #E7480B",
"N. c #EC5411",
"B. c #967745",
"V. c #A07340",
"C. c #A07F46",
"Z. c #AD7949",
"A. c #9A8557",
"S. c #A88746",
"D. c #AD8C48",
"F. c #AA8945",
"G. c #B69752",
"H. c #B69658",
"J. c #B6985D",
"K. c #BB9D5E",
"L. c #B79D66",
"P. c #B89B63",
"I. c #BBA26A",
"U. c #C4A565",
"Y. c #C4A86D",
"T. c #CAAD6D",
"R. c #CBAE72",
"E. c #CEB274",
"W. c #D3B678",
"Q. c #D7BB7E",
"!. c #DBBE80",
"~. c #EACF94",
"^. c None",
/* pixels */
"^.^.^.^.^.^.^.^.^.^.^.^.^.^.^.^.^.^.^.X     ^.^.^.^.^.^.^.^.^.^.",
"^.^.^.^.^.^.^.^.^.^.^.^.^.^.^.  ^.= > & O   X ^.^.^.^.^.^.^.^.^.",
"^.^.^.^.^.^.^.^.^.^.^.^.^.^.% O a x s = - - ; - + ^.^.^.^.^.^.^.",
"^.^.^.^.^.^.^.^.^.^.^.^.^.* ; f z f s , % O O & & O ^.^.^.^.^.^.",
"^.^.^.^.^.^.^.^.^.^.^.S @.G S y s h l l a & & & = X   ^.^.^.^.^.",
"^.^.^.^.^.^.^.^.^.^.$.<.,.,.0.+.m h x x s > - , a ;     ^.^.^.^.",
"^.^.^.^.^.^.^.^.^.G $.:.O.<.r.q.&.m g l x l > % = , > ^.^.^.^.^.",
"^.^.^.^.^.^.^.^.^.....| X.<.>.O.=.| r f s c s a & O - + ^.^.^.^.",
"^.^.^.^.^.^.^.^.^.Z | D %.+.=...| +.B h s s s - , & O + X ^.^.^.",
"^.^.^.^.^.^.^.^.^.^.A Z O.O... .H O.A w c - a > & a = X X ^.^.^.",
"^.^.^.^.^.^.^.^.^.^.L ) Y S A F D +.| 5 l f % a % - , X   ^.^.^.",
"^.^.^.9.t.o.^.^.^.^.( Y.H.` T P J =.| v s f & - - O , +   ^.^.^.",
"^.^.^.n.M.2.o.^.^.^.k I.I.u { v.U &.O.Z > s & + , + = = ^.^.^.^.",
"^.^.^.n.N.w.O.^.^.^.i I.P.< ] G.R &.&.B - a , O - & O + ^.^.^.^.",
"^.^.^.^.t.7.Z   ^.^.} Q.L.p [ T.) *.O.v - a , X & &   X ^.^.^.^.",
"^.^.^.^.1 2 : O ^.^.' P.R.A.L.T.d.&. .2 & , ,   % &   ^.^.^.^.^.",
"^.^.^.^.^.^.@ ; ^.^.^.k.S.U.E.E.j.+.| 1 X - = ^.  ^.^.^.^.^.^.^.",
"^.^.^.^.^.^.^.+ ^.^.^.^.' J.Y.U.f.&.Z o . % 9 G 3 ^.^.^.^.^.^.^.",
"^.^.^.^.^.^.^.+ q ^.^.^.^.5.Q _ P  .A J V C ;.=.4.K.S.k.^.^.^.^.",
"^.^.^.^.^.^.^.x.B.z.E -.n.8.C $ V F 3.y.$.6.m.8.Z.~.W.D.! ^.^.^.",
"^.^.^.^.^.^.^.P.!.v.s.i.u.=.@.#.H H e.w.:.+.*.3.V.K.U.K.^ ^.^.^.",
"^.^.^.^.^.^.^.b.U.H.^ 7.&.F 4 V A #.;.%.X.B v 7 ! / c.D.^ ^.^.^.",
"^.^.^.^.^.^.^.W k.l.R O.^.^.: 7 t e # # @ O X 6 P ^.^./ W ^.^.^.",
"^.^.^.^.^.^.^.^.^.K $ ^.^.^.4 4 - ; # # @ 8 N Z b ^.^.^.^.^.^.^.",
"^.^.^.^.^.^.^.^.^.^.& + , g l l h 0 %.%.+.o.| Z v ^.^.^.^.^.^.^.",
"^.^.^.^.^.^.^.^.^.^.^.% , d s a a & G  .D Z N 7 ^.^.^.^.^.^.^.^.",
"^.^.^.^.^.^.^.^.^.^.^.^.X % & & % O 2 N v 9 4 o ^.^.^.^.^.^.^.^.",
"^.^.^.^.^.^.^.^.^.^.^.^.^.^.        ^.^.< > X ^.^.^.^.^.^.^.^.^.",
"^.^.^.^.^.^.^.^.^.^.^.^.^.^.^.^.^.^.^.^.O X ^.^.^.^.^.^.^.^.^.^.",
"^.^.^.^.^.^.^.^.^.^.^.^.^.^.^.^.^.^.^.^.^.^.^.^.^.^.^.^.^.^.^.^.",
"^.^.^.^.^.^.^.^.^.^.^.^.^.^.^.^.^.^.^.^.^.^.^.^.^.^.^.^.^.^.^.^.",
"^.^.^.^.^.^.^.^.^.^.^.^.^.^.^.^.^.^.^.^.^.^.^.^.^.^.^.^.^.^.^.^."
};
