/* XPM */
static char *result[] = {
/* columns rows colors chars-per-pixel */
"32 32 161 2 ",
"   c #010203",
".  c #0B0506",
"X  c #0F0801",
"o  c #040609",
"O  c #090508",
"+  c #05090D",
"@  c #0A0B0D",
"#  c #190C0C",
"$  c #190405",
"%  c #060C11",
"&  c #0A0E13",
"*  c #150E12",
"=  c #1A0D12",
"-  c #0C1116",
";  c #0D131A",
":  c #121016",
">  c #12161B",
",  c #14191E",
"<  c #1C1A1F",
"1  c #200607",
"2  c #2D0101",
"3  c #260E07",
"4  c #2E0805",
"5  c #340506",
"6  c #3D0202",
"7  c #3D0A0B",
"8  c #261807",
"9  c #2A1B09",
"0  c #2E0F12",
"q  c #211A11",
"w  c #2E1419",
"e  c #28161A",
"r  c #312714",
"t  c #372916",
"y  c #3D2E18",
"u  c #151B21",
"i  c #191E23",
"p  c #1C2025",
"a  c #1E2329",
"s  c #21262C",
"d  c #23292E",
"f  c #2A2A29",
"g  c #262C32",
"h  c #292F34",
"j  c #2A3136",
"k  c #2D333A",
"l  c #440101",
"z  c #4C0402",
"x  c #4E0C02",
"c  c #40090B",
"v  c #4F0C08",
"b  c #520302",
"n  c #5C0202",
"m  c #570902",
"M  c #451605",
"N  c #4B1102",
"B  c #411F06",
"V  c #4D1A09",
"C  c #571406",
"Z  c #410E10",
"A  c #501911",
"S  c #640101",
"D  c #6C0100",
"F  c #650902",
"G  c #6C0A01",
"H  c #730500",
"J  c #7C0100",
"K  c #740A01",
"L  c #7F0F06",
"P  c #750E08",
"I  c #7D1702",
"U  c #5D210A",
"Y  c #47300F",
"T  c #432E14",
"R  c #473011",
"E  c #503510",
"W  c #662E0C",
"Q  c #682F0D",
"!  c #792104",
"~  c #662B11",
"^  c #6C3413",
"/  c #733D1C",
"(  c #7B3B19",
")  c #473721",
"_  c #654013",
"`  c #6B4517",
"'  c #754619",
"]  c #714B1E",
"[  c #745116",
"{  c #795618",
"}  c #7C591A",
"|  c #4A422A",
" . c #70552B",
".. c #7A5F37",
"X. c #343A40",
"o. c #776C52",
"O. c #840200",
"+. c #8D0400",
"@. c #840C01",
"#. c #880802",
"$. c #950700",
"%. c #940B00",
"&. c #9B0C00",
"*. c #861502",
"=. c #8D1301",
"-. c #891E04",
";. c #9C1101",
":. c #991904",
">. c #951305",
",. c #A70F01",
"<. c #A21100",
"1. c #AA1102",
"2. c #B61D02",
"3. c #B81804",
"4. c #872703",
"5. c #892905",
"6. c #84270B",
"7. c #90260A",
"8. c #9D2504",
"9. c #823610",
"0. c #843F19",
"q. c #933B11",
"w. c #A82909",
"e. c #B32B03",
"r. c #BE3B11",
"t. c #CB1D0A",
"y. c #C21B06",
"u. c #D3220D",
"i. c #C63208",
"p. c #C03F14",
"a. c #805C21",
"s. c #985E35",
"d. c #B54928",
"f. c #8C6F2F",
"g. c #8B6623",
"h. c #95722B",
"j. c #826732",
"k. c #8D6E3F",
"l. c #997630",
"z. c #9D7B33",
"x. c #CA4715",
"c. c #EA4B0C",
"v. c #F1510D",
"b. c #F15F17",
"n. c #9E7B4C",
"m. c #9F8A5D",
"M. c #A08043",
"N. c #AB8B46",
"B. c #A2834E",
"V. c #AB8245",
"C. c #B4944F",
"Z. c #AF8B57",
"A. c #B69652",
"S. c #BB9B5B",
"D. c #C1875F",
"F. c #C6A769",
"G. c #CCAE74",
"H. c #D2B77B",
"J. c #D6B97B",
"K. c #DCC185",
"L. c None",
/* pixels */
"L.L.L.L.L.L.L.L.L.L.L.@ +   L.o @ + + o L.L.L.L.L.L.L.L.L.L.L.L.",
"L.L.L.L.L.L.L.L.L.L.> s @ o > i ; & % o   o     L.L.L.L.L.L.L.L.",
"L.L.L.L.L.L.L.L.L.@ i ; @ h h i % + + - - &   L.L.L.L.L.L.L.L.L.",
"L.L.L.L.L.L.L.L K v i u d k > - , , > , , , - @ L.L.L.L.L.L.L.L.",
"L.L.L.L.L.L.@.u.t.1.c d s i g k g - - % % - ; > @ L.L.L.L.L.L.L.",
"L.L.L.L.L.z >.y.3.t.D e i g h i > i i > % o + - - L.L.L.L.L.L.L.",
"L.L.L.L.L.z ;.<.#.<.O.0 i g s i u > u u u > % o + + L.L.L.L.L.L.",
"L.L.L.L.b G @.;.L %.$.b i s h k i ; i > - ; i > + o   L.L.L.L.L.",
"L.L.L.L.6 D D #.%.K $.n i i p k k > , i , % & , , o   L.L.L.L.L.",
"L.L.L.L.L.x U G J H ,.D e a u i k h % , i > + % , @ L.  L.L.L.L.",
"L.L.L.L.L._ j.' m K 1.O.7 j > ; s k , % , i > @ % : L.L.L.L.L.L.",
"L.L.#.L.L.8 r f.^ &.1.O.7 h a & , k s % ; i i - + %   L.L.L.L.L.",
"L.L.r.i.+.w o.z.^ <.1.O.7 a j ; : a j % % > i u @ o   L.L.L.L.L.",
"L.L.x.c.2.A | N.W <.<.D e i j i - u a > o - u i >     L.L.L.L.L.",
"L.L.x.v.e.n.m.N.W &.$.n : i d d % ; i , + % > i >     L.L.L.L.L.",
"L.L.x.b.e.Z.H.N.W <.$.S : u p k - % > i % o - i - L.L.L.L.L.L.L.",
"L.L.L.7.4.n.H.N.W %.O.5 - ; a j @ + ; i , . % ; + L.L.L.L.L.L.L.",
"L.L.L.L.  y G.N.~ $.J 1 % ; u i @ + - u p O + + L.L.L.L.L.L.L.L.",
"L.L.L.L.  X n.S./ +.b o o & > i + o % u ,     o L.L.L.L.L.L.L.L.",
"L.L.L.L.L.+ E M./ H l o . % & u # o % u - L.  L.L.L.L.L.L.L.L.L.",
"L.L.L.L.L.- p Y ~ S # 5 *.3 % - 5.7 + : 5 L.  L.L.L.L.L.L.L.L.L.",
"L.L.L.L.L.L.@ 9 N S z =.&.8.M . ! I + $ O.L.L.L.L.L.L.L.L.L.L.L.",
"L.L.L.L.L.L...B.V G :.s.D.d.w.-.N &.6 . z L.L.L.L.L.L.L.L.L.L.L.",
"L.L.L.L.L.] G.F./ @.9.B.K.F.V.q.;.P = % o L.L.L.L.L.L.L.L.L.L.L.",
"L.L.L.L.L.` S.C.( &.0.H.H.G.A.} C = + 1 2 L.L.L.L.L.L.L.L.L.L.L.",
"L.L.L.L.L.L. .g.6.+.' S.F.C.z.[ q 4 G O.D l L.L.L.L.L.L.L.L.L.L.",
"L.L.L.L.L.L.L.B m L.L. .l.h.{ y i : F O.S l L.L.L.L.L.L.L.L.L.L.",
"L.L.L.L.L.L.L.O @ L.- f Y E t : ; @ O l b l L.L.L.L.L.L.L.L.L.L.",
"L.L.L.L.L.L.L.L.+ L.+ + % + % % + +   2 L.L.L.L.L.L.L.L.L.L.L.L.",
"L.L.L.L.L.L.L.L.L.L.L.              L.L.L.L.L.L.L.L.L.L.L.L.L.L.",
"L.L.L.L.L.L.L.L.L.L.L.L.L.L.L.L.L.L.L.L.L.L.L.L.L.L.L.L.L.L.L.L.",
"L.L.L.L.L.L.L.L.L.L.L.L.L.L.L.L.L.L.L.L.L.L.L.L.L.L.L.L.L.L.L.L."
};
