/* XPM */
static char *result[] = {
/* columns rows colors chars-per-pixel */
"32 32 178 2 ",
"   c #010204",
".  c #090001",
"X  c #040609",
"o  c #0B0509",
"O  c #06090D",
"+  c #0A0B0E",
"@  c #150000",
"#  c #120B05",
"$  c #1F0404",
"%  c #14110D",
"&  c #070C11",
"*  c #090E14",
"=  c #140D10",
"-  c #1B0B10",
";  c #0D1115",
":  c #0D141A",
">  c #1A1914",
",  c #12161A",
"<  c #13191E",
"1  c #1C191B",
"2  c #2E0505",
"3  c #280B06",
"4  c #250A0A",
"5  c #330101",
"6  c #3C0505",
"7  c #3E0803",
"8  c #3C0B0D",
"9  c #3C180A",
"0  c #240C10",
"q  c #29161A",
"w  c #301215",
"e  c #30230F",
"r  c #21201F",
"t  c #302617",
"y  c #3F2613",
"u  c #191E23",
"i  c #151C22",
"p  c #3E1F23",
"a  c #1D2328",
"s  c #2A2227",
"d  c #23292E",
"f  c #2A2B2B",
"g  c #302623",
"h  c #252B31",
"j  c #292F35",
"k  c #2A3036",
"l  c #30363D",
"z  c #31383E",
"x  c #420304",
"c  c #460F04",
"v  c #4E0906",
"b  c #440608",
"n  c #460B0B",
"m  c #4A0401",
"M  c #560201",
"N  c #5C0300",
"B  c #5F0A02",
"V  c #5B0F09",
"C  c #550A03",
"Z  c #431305",
"A  c #5D1C08",
"S  c #650202",
"D  c #6C0400",
"F  c #680801",
"G  c #620F05",
"H  c #750300",
"J  c #7A0100",
"K  c #740B03",
"L  c #790801",
"P  c #66110B",
"I  c #6A1D05",
"U  c #761809",
"Y  c #432C0B",
"T  c #433117",
"R  c #503E18",
"E  c #553B14",
"W  c #68240D",
"Q  c #64240A",
"!  c #7F2507",
"~  c #7C230D",
"^  c #663512",
"/  c #713E1D",
"(  c #6C4B15",
")  c #784017",
"_  c #704B15",
"`  c #76491C",
"'  c #7D5217",
"]  c #7A501B",
"[  c #7E5A1B",
"{  c #624A27",
"}  c #6A4E25",
"|  c #6B5628",
" . c #63522B",
".. c #725825",
"X. c #6E5736",
"o. c #766336",
"O. c #7C6C49",
"+. c #850300",
"@. c #8B0500",
"#. c #840B01",
"$. c #8C0E01",
"%. c #900400",
"&. c #940B00",
"*. c #9D0D01",
"=. c #901103",
"-. c #9D1004",
";. c #9E1C02",
":. c #A20F01",
">. c #A31302",
",. c #AC1302",
"<. c #A11902",
"1. c #A01F0A",
"2. c #B21404",
"3. c #BA1A05",
"4. c #B91808",
"5. c #9B2207",
"6. c #84370C",
"7. c #802910",
"8. c #A1210B",
"9. c #A62906",
"0. c #A0300C",
"q. c #AC3509",
"w. c #BC3207",
"e. c #C51C07",
"r. c #CC1F09",
"t. c #C42F04",
"y. c #D7220B",
"u. c #CC3B0A",
"i. c #8D410F",
"p. c #80491A",
"a. c #834E24",
"s. c #85542B",
"d. c #8F532C",
"f. c #8A5E2A",
"g. c #8F5E33",
"h. c #856223",
"j. c #91712B",
"k. c #896636",
"l. c #8C6A33",
"z. c #916B31",
"x. c #9C6836",
"c. c #987632",
"v. c #9F7E3F",
"b. c #A17F3D",
"n. c #D65111",
"m. c #D65817",
"M. c #8A7954",
"N. c #978254",
"B. c #998355",
"V. c #A7864C",
"C. c #A78B4C",
"Z. c #AC8E4C",
"A. c #B3834D",
"S. c #B08F4F",
"D. c #B4934D",
"F. c #A68957",
"G. c #AF8D54",
"H. c #A58E5C",
"J. c #AB925F",
"K. c #B3945A",
"L. c #BA9B58",
"P. c #B99955",
"I. c #BFA15E",
"U. c #A89160",
"Y. c #BEA36B",
"T. c #B8A273",
"R. c #C3A667",
"E. c #C3A469",
"W. c #C7A96F",
"Q. c #C8AA6D",
"!. c #C3A870",
"~. c #CBAE71",
"^. c #CEB173",
"/. c #D2B576",
"(. c #D1B579",
"). c #D5B87B",
"_. c #D8BB7F",
"`. c None",
/* pixels */
"`.`.`.`.`.`.`.`.`.`.`.`.`.`.`.`.`.`.      `.`.`.`.`.`.`.`.`.`.`.",
"`.`.`.`.`.`.`.`.`.`.`.`.`.  `.+ 1 : O     `.`.`.`.`.`.`.`.`.`.`.",
"`.`.`.`.`.`.`.`.`.`.`.`.    , k h & + + + `.`.`.`.`.`.`.`.`.`.`.",
"`.`.`.`.`.`.`.`.`.`.`.* < u k k < , < : * & O   `.`.`.`.`.`.`.`.",
"`.`.`.`.`.`.`.`.`.`.& i q i a a a a j l d = & +     `.`.`.`.`.`.",
"`.`.`.`.`.`.`.`.`.`.6 V =.P n w a h h h d d k u X   `.`.`.`.`.`.",
"`.`.`.`.`.`.`.`.`.$.4.e.y.t.,.H w d u i ; & : < , `.`.`.`.`.`.`.",
"`.`.`.`.`.`.`.`.&.*.4.r.y.e.4.+.H g j u < * + O & & `.`.`.`.`.`.",
"`.`.`.`.`.`.`.K *.H >.,.4.2.,.J J S s z u : < , + O   `.`.`.`.`.",
"`.`.`.`.`.`.`.H H $.#.>.L >.#.+.H +.8 a z i & < ,     `.`.`.`.`.",
"`.`.`.`.`.`.`.`.M J D *.F &.F S D +.S 1 h h O * : X   `.`.`.`.`.",
"`.`.`.`.`.`.`.5.W W A L N Q ] ] C $.J 0 i h ; O ; O   `.`.`.`.`.",
"`.`.`.`.`.`.1.n.x.o.R s.g.C. .| / #.+.x : u < X * & `.`.`.`.`.`.",
"`.`.`.`.`.`.1.n.A.O.f T.^.H.1 M.b.U @.6 * : < X & X `.`.`.`.`.`.",
"`.`.`.`.`.`.1.m.A.M.> U.(.J.> O.G.~ %.b & ; < & X   `.`.`.`.`.`.",
"`.`.`.`.`.`.`.0.d.!.B.(.).~.B.Y.I.a.@.b & O , &   `.`.`.`.`.`.`.",
"`.`.`.`.`.`.`.. Y Q.(.K.R.K.Q.^.Q.s.@.n : X + X   `.`.`.`.`.`.`.",
"`.`.`.`.`.`.`.`.= X.~.G.z.V.^.^.P.f.F 2 : X X `.`.`.`.`.`.`.`.`.",
"`.`.`.`.`.`.`.`.`.r } F.Y.Q.R.S.j.' c o + 4     `.`.`.`.`.`.`.`.",
"`.`.`.`.`.`.`.`.`.X `.`.d.{ p.6.6.7.G 9 x @.`.  `.`.`.`.`.`.`.`.",
"`.`.`.`.`.`.`.`.`.# t 7.w.I q.9.;.+.0.q.L %.`.`.`.`.`.`.`.`.`.`.",
"`.`.`.`.`.`.`.`.`.k.l./ t.9.x.G.z.6.u.3.D 5 `.`.`.`.`.`.`.`.`.`.",
"`.`.`.`.`.`.`.`.`.Q.R.} Z ^ V._.L.' <.K - X `.`.`.`.`.`.`.`.`.`.",
"`.`.`.`.`.`.`.`.`.b.D...* t v.Q.D.' G - 4 m `.`.`.`.`.`.`.`.`.`.",
"`.`.`.`.`.`.`.`.`._ ( Y 2 7 ` c.h.E 3 G +.J `.`.`.`.`.`.`.`.`.`.",
"`.`.`.`.`.`.`.`.`.`.#   N v g T t , = M H N `.`.`.`.`.`.`.`.`.`.",
"`.`.`.`.`.`.`.`.`.`.`.X @ + : * & & O X 5 x `.`.`.`.`.`.`.`.`.`.",
"`.`.`.`.`.`.`.`.`.`.`.`.`.              `.`.`.`.`.`.`.`.`.`.`.`.",
"`.`.`.`.`.`.`.`.`.`.`.`.`.`.`.`.`.`.`.`.`.`.`.`.`.`.`.`.`.`.`.`.",
"`.`.`.`.`.`.`.`.`.`.`.`.`.`.`.`.`.`.`.`.`.`.`.`.`.`.`.`.`.`.`.`.",
"`.`.`.`.`.`.`.`.`.`.`.`.`.`.`.`.`.`.`.`.`.`.`.`.`.`.`.`.`.`.`.`.",
"`.`.`.`.`.`.`.`.`.`.`.`.`.`.`.`.`.`.`.`.`.`.`.`.`.`.`.`.`.`.`.`."
};
