/* XPM */
static char *result[] = {
/* columns rows colors chars-per-pixel */
"32 32 156 2 ",
"   c #020305",
".  c #030609",
"X  c #08070C",
"o  c #06090D",
"O  c #090B0E",
"+  c #0C0304",
"@  c #1C0304",
"#  c #120608",
"$  c #1A0909",
"%  c #060C11",
"&  c #0A0E13",
"*  c #1E0C11",
"=  c #0C1116",
"-  c #0D1319",
";  c #11161B",
":  c #191519",
">  c #13181E",
",  c #1C181D",
"<  c #240304",
"1  c #2A0304",
"2  c #2B0905",
"3  c #280609",
"4  c #300504",
"5  c #390505",
"6  c #330A0B",
"7  c #380D0F",
"8  c #230F11",
"9  c #2E0E11",
"0  c #350F12",
"q  c #291113",
"w  c #27161A",
"e  c #29171B",
"r  c #2A1A1E",
"t  c #341213",
"y  c #3B1414",
"u  c #3F1B1D",
"i  c #25231D",
"p  c #151B21",
"a  c #181F24",
"s  c #1C2227",
"d  c #1D2329",
"f  c #23252A",
"g  c #21282E",
"h  c #252C31",
"j  c #292F35",
"k  c #2A3137",
"l  c #2C3339",
"z  c #3F3C33",
"x  c #4E0A0A",
"c  c #560100",
"v  c #5C0303",
"b  c #550A01",
"n  c #580C0B",
"m  c #5C1305",
"M  c #630301",
"N  c #6B0101",
"B  c #730300",
"V  c #7C0300",
"C  c #740B01",
"Z  c #7D0A01",
"A  c #611205",
"S  c #6B140A",
"D  c #7D1504",
"F  c #731108",
"G  c #5E2003",
"H  c #6D2205",
"J  c #63390F",
"K  c #73330F",
"L  c #732611",
"P  c #663017",
"I  c #6D3617",
"U  c #753C19",
"Y  c #683722",
"T  c #674112",
"R  c #6A4914",
"E  c #7D4913",
"W  c #734E1E",
"Q  c #584626",
"!  c #5E4F34",
"~  c #7C4424",
"^  c #7B5524",
"/  c #67593C",
"(  c #6D5E3E",
")  c #63553A",
"_  c #7C622E",
"`  c #6F6141",
"'  c #716244",
"]  c #840700",
"[  c #8C0500",
"{  c #850A02",
"}  c #8E0C01",
"|  c #920900",
" . c #9C0D01",
".. c #841305",
"X. c #891509",
"o. c #9D1201",
"O. c #A30E00",
"+. c #A21502",
"@. c #AC1307",
"#. c #AE1B02",
"$. c #B31704",
"%. c #BA1706",
"&. c #B41906",
"*. c #BB1A04",
"=. c #8F2102",
"-. c #8E340E",
";. c #82360B",
":. c #98350A",
">. c #BB2304",
",. c #B83608",
"<. c #CE200B",
"1. c #C13305",
"2. c #D73204",
"3. c #99410E",
"4. c #9B4516",
"5. c #AB460E",
"6. c #844B26",
"7. c #85452C",
"8. c #805A2B",
"9. c #865936",
"0. c #905735",
"q. c #8A6724",
"w. c #8F6E2E",
"e. c #906E3B",
"r. c #9C6A3B",
"t. c #9D7A3F",
"y. c #D64410",
"u. c #E04B0B",
"i. c #8A7648",
"p. c #957743",
"a. c #9C7A44",
"s. c #9A8457",
"d. c #9D8558",
"f. c #A48443",
"g. c #A98847",
"h. c #A5864E",
"j. c #A6894E",
"k. c #AD8E4C",
"l. c #AD8C57",
"z. c #B69856",
"x. c #B3935A",
"c. c #B99A5F",
"v. c #908161",
"b. c #B79E67",
"n. c #BA9E63",
"m. c #BFA166",
"M. c #C1A462",
"N. c #CAAD6E",
"B. c #C2A469",
"V. c #CCAF72",
"C. c #C3A973",
"Z. c #CEB174",
"A. c #D4B576",
"S. c #D2B578",
"D. c #DCC084",
"F. c None",
/* pixels */
"F.F.F.F.F.F.F.F.F.F.F.F.F.F.F.F.F.F.F.F.F.F.F.F.F.F.F.F.F.F.F.F.",
"F.F.F.F.F.F.F.F.F.F.%   . F.X F.F.F.F.F.F.F.F.F.F.F.F.F.F.F.F.F.",
"F.F.F.F.F.F.  F.f d = - ; = = & . F.F.F.F.F.F.F.F.F.F.F.F.F.F.F.",
"F.F.F.F.F.; X j h a g g > = & O O O . F.F.F.F.F.F.F.F.F.F.F.F.F.",
"F.F.F.F.= > s g g k j l a = = - & . .   F.F.F.F.F.F.F.F.F.F.F.F.",
"F.F.F.F.: t y y u g k l h f ; X - = F.F.F.F.F.F.F.F.F.F.F.F.F.F.",
"F.F.F.F X.&.$.*.@.n e h d p p p & & = F.F.F.F.F.F.F.F.F.F.F.F.F.",
"F.F.+.<.%.*.$.*. .@.N e g d & ; > O & & F.F.F.F.F.F.F.F.F.F.F.F.",
"F.Z  .{ {  .Z | [ { [ 7 p a p & = > O O . F.F.F.F.F.F.F.F.F.F.F.",
"F.B B M o.[ N B ] B o.M p - p ; % = & F.  F.F.F.F.F.F.F.F.F.F.F.",
"F.F.m I ..B U ~ S N o.[ 0 - - p O % O F.F.F.F.F.F.F.F.F.F.F.F.F.",
"F.F.T _ 9.7.h.i.Y c Z  .3 p % - & . % F.F.F.F.F.F.F.F.F.F.F.F.F.",
"F.F.F.Q v.V.( z e.P D O.v ; - & - O % . F.F.F.F.F.F.F.F.F.F.F.F.",
"F.F.^ ) ' A./ i j.k.K O.M & ; & = % . . F.F.F.F.F.F.F.F.F.F.F.F.",
"F.F.^ ) ` A.' i b.m.U +.M X - & % O F.F.F.F.F.F.F.F.F.F.F.F.F.F.",
"F.F.F.d.C.S.b.s.V.N.6. .v X & & . . F.F.F.F.F.F.F.F.F.F.F.F.F.F.",
"F.F.F.l.m.x.n.Z.Z.Z.0.[ 5 . % = .     F.F.F.F.F.F.F.F.F.F.F.F.F.",
"F.F.F.F.h.t.m.Z.N.M.6.V < 3 + % % F.F.F.F.F.F.F.F.F.F.F.F.F.F.F.",
"F.F.F.F.F.a.p.j.f.w.L N b  .B 4 .   F.F.F.F.F.F.F.F.F.F.F.F.F.F.",
"F.F.F.F.F.F.H :.-.3.M Z #.*.} M F.F.F.F.F.F.F.F.F.F.F.F.F.F.F.F.",
"F.F.F.F.F.F.=.>.y.,.D +.} A $   F.F.F.F.F.F.F.F.F.F.F.F.F.F.F.F.",
"F.F.F.F.F.^ r.4.u.1.>.[ 8 % % @ F.F.F.F.F.F.F.F.F.F.F.F.F.F.F.F.",
"F.F.F.F.F.a.Z.f.5.2.o.t & < + @ 1 F.F.F.F.F.F.F.F.F.F.F.F.F.F.F.",
"F.F.F.F.T x.D.z.E ..5 6 c 0 ; %   F.F.F.F.F.F.F.F.F.F.F.F.F.F.F.",
"F.F.F.F.W B.S.k.R 1 C  .x s ; - . F.F.F.F.F.F.F.F.F.F.F.F.F.F.F.",
"F.F.F.F.F.t.g.q.;.+.O.V r s p & . F.F.F.F.F.F.F.F.F.F.F.F.F.F.F.",
"F.F.F.F.F.F.J H +. .[ v q a = . F.F.F.F.F.F.F.F.F.F.F.F.F.F.F.F.",
"F.F.F.F.F.F.r t x N B c 2 p %   F.F.F.F.F.F.F.F.F.F.F.F.F.F.F.F.",
"F.F.F.F.F.F.p > - * 3 < @ O . F.F.F.F.F.F.F.F.F.F.F.F.F.F.F.F.F.",
"F.F.F.F.F.F.. . . . .   F.F.F.F.F.F.F.F.F.F.F.F.F.F.F.F.F.F.F.F.",
"F.F.F.F.F.F.F.F.F.F.F.F.F.F.F.F.F.F.F.F.F.F.F.F.F.F.F.F.F.F.F.F.",
"F.F.F.F.F.F.F.F.F.F.F.F.F.F.F.F.F.F.F.F.F.F.F.F.F.F.F.F.F.F.F.F."
};
