/* XPM */
static char *result[] = {
/* columns rows colors chars-per-pixel */
"32 32 138 2 ",
"   c #020304",
".  c #04060A",
"X  c #0B0609",
"o  c #05090D",
"O  c #090C0E",
"+  c #190505",
"@  c #160609",
"#  c #140A0D",
"$  c #19090C",
"%  c #070D12",
"&  c #0A0E13",
"*  c #1B0E12",
"=  c #0C1115",
"-  c #0E141A",
";  c #101316",
":  c #1A1011",
">  c #11161B",
",  c #14191E",
"<  c #181A1D",
"1  c #210505",
"2  c #280605",
"3  c #2C0E0C",
"4  c #3B0305",
"5  c #3B070A",
"6  c #3E0A0C",
"7  c #3B1307",
"8  c #201318",
"9  c #361316",
"0  c #301518",
"q  c #2E291C",
"w  c #151B21",
"e  c #181E23",
"r  c #231B20",
"t  c #2A1C20",
"y  c #1A2126",
"u  c #1D2329",
"i  c #222025",
"p  c #282427",
"a  c #22272D",
"s  c #22282E",
"d  c #242A31",
"f  c #282F35",
"g  c #2A3036",
"h  c #2C3339",
"j  c #470406",
"k  c #4F0503",
"l  c #43090B",
"z  c #550202",
"x  c #5D0500",
"c  c #540A05",
"v  c #5A0A02",
"b  c #4F1905",
"n  c #511605",
"m  c #451414",
"M  c #650200",
"N  c #6B0200",
"B  c #6B0800",
"V  c #720200",
"C  c #790200",
"Z  c #7A0900",
"A  c #601206",
"S  c #6A100B",
"D  c #7D1707",
"F  c #702005",
"G  c #6C320F",
"H  c #703F0D",
"J  c #633017",
"K  c #713613",
"L  c #7A3215",
"P  c #73321E",
"I  c #69440F",
"U  c #6B4710",
"Y  c #6E4914",
"T  c #7A5217",
"R  c #75501B",
"E  c #574D36",
"W  c #584E38",
"Q  c #7E5A24",
"!  c #585243",
"~  c #840100",
"^  c #8C0400",
"/  c #840B01",
"(  c #8C0B01",
")  c #970700",
"_  c #950B01",
"`  c #9D0B01",
"'  c #871503",
"]  c #851208",
"[  c #9A1201",
"{  c #A40E01",
"}  c #A31101",
"|  c #AF1501",
" . c #AC1C02",
".. c #A61809",
"X. c #B21404",
"o. c #932504",
"O. c #95320C",
"+. c #AA2604",
"@. c #B22C05",
"#. c #C41C0A",
"$. c #CE2B04",
"%. c #D3210B",
"&. c #D9240E",
"*. c #C93005",
"=. c #8B4A0F",
"-. c #855419",
";. c #9A591B",
":. c #8A562D",
">. c #825E2A",
",. c #93732F",
"<. c #8B6736",
"1. c #8E7235",
"2. c #997733",
"3. c #A07F3F",
"4. c #8B6744",
"5. c #8A734C",
"6. c #987543",
"7. c #9C7945",
"8. c #A3823D",
"9. c #97825A",
"0. c #A28340",
"q. c #A98844",
"w. c #AC8B4C",
"e. c #AC8C52",
"r. c #AF9058",
"t. c #B99A57",
"y. c #B3945A",
"u. c #BB9D5B",
"i. c #A38F63",
"p. c #B49763",
"a. c #C0A161",
"s. c #C6A86F",
"d. c #C9AD6D",
"f. c #C4A970",
"g. c #CEB274",
"h. c #CCB178",
"j. c #D0B376",
"k. c None",
/* pixels */
"k.k.k.k.k.k.k.k.k.        k.k.    k.k.k.k.k.k.k.k.k.k.k.k.k.k.k.",
"k.k.k.k.k.k.k.k.k.  X = > ; O     ; k.k.k.k.k.k.k.k.k.k.k.k.k.k.",
"k.k.k.k.k.k.k.k.O O o % = = ; , O ; , k.k.k.k.k.k.k.k.k.k.k.k.k.",
"k.k.k.k.k.k.k.= w w w w s g u w s w 9 z x k.k.k.k.k.k.k.k.k.k.k.",
"k.k.k.k.k.k.> > = % % = w u d g s 9 C | #.] k.k.k.k.k.k.k.k.k.k.",
"k.k.k.k.k.& & o . = - w u s f g r c { %.&.&...k.k.k.k.k.k.k.k.k.",
"k.k.k.k.o & . & w w w w e w y d t N ` X.#.#.../ k.k.k.k.k.k.k.k.",
"k.k.k.k.o   ; e w - % % - , g g m ~ ^ _ ( _ / / M k.k.k.k.k.k.k.",
"k.k.k.  k.o , = o o = > = d h e l ^ / Z Z C C N M k.k.k.k.k.k.k.",
"k.k.k.k.k.O =   & , , - w f w e l ^ } N z S P b k.k.k.k.k.k.k.k.",
"k.k.k.k.X = o & e w = - a y e d l ` } v J 4.p.k.k.k.k.k.k.k.k.k.",
"k.k.k.k.  o & e w = & , e - d u j { } G 1.E 5.k.k.k.k.k.k.k.k.k.",
"k.k.k.k.    ; w - o w e - > f 8 N { { G 8.! 5.k.k.k.k.k.k.k.k.k.",
"k.k.k.k.k.k.& - o = e - = > y * V { } G 8.q 9.<.k.k.k.k.k.k.k.k.",
"k.k.k.k.k.k.& & O e , & & e w * V { } G w.W i.7.k.k.k.k.k.k.k.k.",
"k.k.k.k.k.k.o o > e = o - e - $ V { } K t.f.h.6.k.k.k.k.k.k.k.k.",
"k.k.k.k.k.k.o o = > O & y w % @ V { [ :.d.j.s.k.k.k.k.k.k.k.k.k.",
"k.k.k.k.k.    k.o & o , e - % @ V ) D w.g.y.<.k.k.k.k.k.k.k.k.k.",
"k.k.k.k.k.k.k.k.o   k.; > % . o z ~ L 3.w.>.k.k.k.k.k.k.k.k.k.k.",
"k.k.k.k.k.k.k.k.k.k.k.; & 7 b . 4 V G T R >.k.k.k.k.k.k.k.k.k.k.",
"k.k.k.k.k.k.k.k.k.k.k.+ Z  .*.F v V O.;.3.e.r.k.k.k.k.k.k.k.k.k.",
"k.k.k.k.k.k.k.k.k.k.k.  2 Z | $.@.N o.-.u.g.a.Q k.k.k.k.k.k.k.k.",
"k.k.k.k.k.k.k.k.k.  O % % $ Z }  .N o.=.,.q.2.Y k.k.k.k.k.k.k.k.",
"k.k.k.k.k.k.k.k.k.o & w s o # c Z c ' +.H U U k.k.k.k.k.k.k.k.k.",
"k.k.k.k.k.k.k.k.k.o - w s < X = ; r m k k.k.k.k.k.k.k.k.k.k.k.k.",
"k.k.k.k.k.k.k.k.k.. = w u p z z 3 : : + k.k.k.k.k.k.k.k.k.k.k.k.",
"k.k.k.k.k.k.k.k.k.  % - y 0 C ^ ( C N B k.k.k.k.k.k.k.k.k.k.k.k.",
"k.k.k.k.k.k.k.k.k.k.o - u 1 4 5 6 6 m m k.k.k.k.k.k.k.k.k.k.k.k.",
"k.k.k.k.k.k.k.k.k.k.  & k.k.o = - , u y k.k.k.k.k.k.k.k.k.k.k.k.",
"k.k.k.k.k.k.k.k.k.k.k.k.k.k.k.  . o o o   k.k.k.k.k.k.k.k.k.k.k.",
"k.k.k.k.k.k.k.k.k.k.k.k.k.k.k.k.k.k.k.k.k.k.k.k.k.k.k.k.k.k.k.k.",
"k.k.k.k.k.k.k.k.k.k.k.k.k.k.k.k.k.k.k.k.k.k.k.k.k.k.k.k.k.k.k.k."
};
