/* XPM */
static char *result[] = {
/* columns rows colors chars-per-pixel */
"32 32 156 2 ",
"   c #020305",
".  c #030609",
"X  c #08070C",
"o  c #06090D",
"O  c #090B0E",
"+  c #0C0304",
"@  c #1C0304",
"#  c #120608",
"$  c #1A0909",
"%  c #060C11",
"&  c #0A0E13",
"*  c #1E0C11",
"=  c #0C1116",
"-  c #0D1319",
";  c #11161B",
":  c #191519",
">  c #13181E",
",  c #1C181D",
"<  c #240304",
"1  c #2A0304",
"2  c #2B0905",
"3  c #280609",
"4  c #300504",
"5  c #390505",
"6  c #330A0B",
"7  c #380D0F",
"8  c #230F11",
"9  c #2E0E11",
"0  c #350F12",
"q  c #291113",
"w  c #27161A",
"e  c #29171B",
"r  c #2A1A1E",
"t  c #341213",
"y  c #3B1414",
"u  c #3F1B1D",
"i  c #25231D",
"p  c #151B21",
"a  c #181F24",
"s  c #1C2227",
"d  c #1D2329",
"f  c #23252A",
"g  c #21282E",
"h  c #252C31",
"j  c #292F35",
"k  c #2A3137",
"l  c #2C3339",
"z  c #3F3C33",
"x  c #4E0A0A",
"c  c #560100",
"v  c #5C0303",
"b  c #550A01",
"n  c #580C0B",
"m  c #5C1305",
"M  c #630301",
"N  c #6B0101",
"B  c #730300",
"V  c #7C0300",
"C  c #740B01",
"Z  c #7D0A01",
"A  c #611205",
"S  c #6B140A",
"D  c #7D1504",
"F  c #731108",
"G  c #5E2003",
"H  c #6D2205",
"J  c #63390F",
"K  c #73330F",
"L  c #732611",
"P  c #663017",
"I  c #6D3617",
"U  c #753C19",
"Y  c #683722",
"T  c #674112",
"R  c #6A4914",
"E  c #7D4913",
"W  c #734E1E",
"Q  c #584626",
"!  c #5E4F34",
"~  c #7C4424",
"^  c #7B5524",
"/  c #67593C",
"(  c #6D5E3E",
")  c #63553A",
"_  c #7C622E",
"`  c #6F6141",
"'  c #716244",
"]  c #840700",
"[  c #8C0500",
"{  c #850A02",
"}  c #8E0C01",
"|  c #920900",
" . c #9C0D01",
".. c #841305",
"X. c #891509",
"o. c #9D1201",
"O. c #A30E00",
"+. c #A21502",
"@. c #AC1307",
"#. c #AE1B02",
"$. c #B31704",
"%. c #BA1706",
"&. c #B41906",
"*. c #BB1A04",
"=. c #8F2102",
"-. c #8E340E",
";. c #82360B",
":. c #98350A",
">. c #BB2304",
",. c #B83608",
"<. c #CE200B",
"1. c #C13305",
"2. c #D73204",
"3. c #99410E",
"4. c #9B4516",
"5. c #AB460E",
"6. c #844B26",
"7. c #85452C",
"8. c #805A2B",
"9. c #865936",
"0. c #905735",
"q. c #8A6724",
"w. c #8F6E2E",
"e. c #906E3B",
"r. c #9C6A3B",
"t. c #9D7A3F",
"y. c #D64410",
"u. c #E04B0B",
"i. c #8A7648",
"p. c #957743",
"a. c #9C7A44",
"s. c #9A8457",
"d. c #9D8558",
"f. c #A48443",
"g. c #A98847",
"h. c #A5864E",
"j. c #A6894E",
"k. c #AD8E4C",
"l. c #AD8C57",
"z. c #B69856",
"x. c #B3935A",
"c. c #B99A5F",
"v. c #908161",
"b. c #B79E67",
"n. c #BA9E63",
"m. c #BFA166",
"M. c #C1A462",
"N. c #CAAD6E",
"B. c #C2A469",
"V. c #CCAF72",
"C. c #C3A973",
"Z. c #CEB174",
"A. c #D4B576",
"S. c #D2B578",
"D. c #DCC084",
"F. c None",
/* pixels */
"F.F.F.F.F.F.F.F.F.F.F.F.F.F.F.F.F.F.F.F.F.F.F.F.F.F.F.F.F.F.F.F.",
"F.F.F.F.F.F.F.F.F.F.F.F.F.F.F.F.F.. F..   O F.F.F.F.F.F.F.F.F.F.",
"F.F.F.F.F.F.F.F.F.F.F.F.F.F.F.. & = = ; ; - s f F.  F.F.F.F.F.F.",
"F.F.F.F.F.F.F.F.F.F.F.F.F.. O o O & = > g g a h j X ; F.F.F.F.F.",
"F.F.F.F.F.F.F.F.F.F.F.F.  . . & ; = - a k j j g h a p = F.F.F.F.",
"F.F.F.F.F.F.F.F.F.F.F.F.F.F.= - O = g j l k g u y y t : F.F.F.F.",
"F.F.F.F.F.F.F.F.F.F.F.F.F.= & & > > p d h w n @.%.$.&.X.F F.F.F.",
"F.F.F.F.F.F.F.F.F.F.F.F.& & O ; ; = s g r N @. .%.$.*.%.<.+.F.F.",
"F.F.F.F.F.F.F.F.F.F.F.  o O > - % p s p 7 | ] } | Z o.{ {  .Z F.",
"F.F.F.F.F.F.F.F.F.F.F.  F.& - % ; p - p M o.B ] B N [  .M B B F.",
"F.F.F.F.F.F.F.F.F.F.F.F.F.o & . ; - ; 9 [ o.N S ~ U B ..I m F.F.",
"F.F.F.F.F.F.F.F.F.F.F.F.F.% o = - & ; 6 | Z c Y i.h.7.9._ T F.F.",
"F.F.F.F.F.F.F.F.F.F.F.F.. o . - = - ; v O.D P e.z ( Z.v.Q F.F.F.",
"F.F.F.F.F.F.F.F.F.F.F.F.o . O - % - & M O.K k.j.i / A.' ! ^ F.F.",
"F.F.F.F.F.F.F.F.F.F.F.F.F.F.o % & - O M O.U M.b.i ' A.` ) ^ F.F.",
"F.F.F.F.F.F.F.F.F.F.F.F.F.F.. . & = X M  .6.N.V.s.b.S.C.d.F.F.F.",
"F.F.F.F.F.F.F.F.F.F.F.F.F.      = % . 5 [ 0.Z.V.Z.c.x.B.l.F.F.F.",
"F.F.F.F.F.F.F.F.F.F.F.F.F.F.F.% % X 1 1 Z 6.M.N.Z.n.t.h.F.F.F.F.",
"F.F.F.F.F.F.F.F.F.F.F.F.F.F.  . 4 B  .b N L w.f.k.p.f.F.F.F.F.F.",
"F.F.F.F.F.F.F.F.F.F.F.F.F.F.F.F.M } &.#.{ M 3.-.:.m F.F.F.F.F.F.",
"F.F.F.F.F.F.F.F.F.F.F.F.F.F.F.F.. $ m | +.D ,.y.>.=.F.F.F.F.F.F.",
"F.F.F.F.F.F.F.F.F.F.F.F.F.F.F.F.@ o = 8 { >.1.u.4.r.8.F.F.F.F.F.",
"F.F.F.F.F.F.F.F.F.F.F.F.F.F.F.1 < + @ & t o.2.5.f.Z.a.F.F.F.F.F.",
"F.F.F.F.F.F.F.F.F.F.F.F.F.F.F.. & ; 6 c 6 5 ..E z.D.x.T F.F.F.F.",
"F.F.F.F.F.F.F.F.F.F.F.F.F.F.F.. = > s x  .C 2 R k.A.B.W F.F.F.F.",
"F.F.F.F.F.F.F.F.F.F.F.F.F.F.F.. % > s r V O.o.;.q.g.a.F.F.F.F.F.",
"F.F.F.F.F.F.F.F.F.F.F.F.F.F.F.F.. - a 9 v [ O.+.H J F.F.F.F.F.F.",
"F.F.F.F.F.F.F.F.F.F.F.F.F.F.F.F.  % p 1 c B N x t r F.F.F.F.F.F.",
"F.F.F.F.F.F.F.F.F.F.F.F.F.F.F.F.F.. % @ < 3 * - > > F.F.F.F.F.F.",
"F.F.F.F.F.F.F.F.F.F.F.F.F.F.F.F.F.F.F.F.  . . . . . F.F.F.F.F.F.",
"F.F.F.F.F.F.F.F.F.F.F.F.F.F.F.F.F.F.F.F.F.F.F.F.F.F.F.F.F.F.F.F.",
"F.F.F.F.F.F.F.F.F.F.F.F.F.F.F.F.F.F.F.F.F.F.F.F.F.F.F.F.F.F.F.F."
};
