/* XPM */
static char *result[] = {
/* columns rows colors chars-per-pixel */
"32 32 179 2 ",
"   c #020304",
".  c #0A0305",
"X  c #030609",
"o  c #06090D",
"O  c #090B0D",
"+  c #1C0505",
"@  c #11060A",
"#  c #1F070B",
"$  c #12080C",
"%  c #060C12",
"&  c #090E14",
"*  c #1B0F13",
"=  c #150B10",
"-  c #0C1116",
";  c #0E141A",
":  c #101316",
">  c #1B1114",
",  c #11161B",
"<  c #13181E",
"1  c #181A1E",
"2  c #250302",
"3  c #2A0805",
"4  c #240709",
"5  c #2A0A08",
"6  c #3C0303",
"7  c #32070A",
"8  c #3B0B0E",
"9  c #3C0A03",
"0  c #24180E",
"q  c #2A1808",
"w  c #371108",
"e  c #311F09",
"r  c #3A1407",
"t  c #281519",
"y  c #34220E",
"u  c #2D281B",
"i  c #372410",
"p  c #161C21",
"a  c #191E23",
"s  c #2A1E21",
"d  c #1B2126",
"f  c #1E242A",
"g  c #22262B",
"h  c #23292E",
"j  c #232227",
"k  c #242B31",
"l  c #292F35",
"z  c #2A3036",
"x  c #30373D",
"c  c #470203",
"v  c #4B0001",
"b  c #440802",
"n  c #4B0802",
"m  c #540200",
"M  c #5B0201",
"N  c #520F08",
"B  c #550F03",
"V  c #561F08",
"C  c #5A1204",
"Z  c #411612",
"A  c #630301",
"S  c #6A0200",
"D  c #630A03",
"F  c #6B0B01",
"G  c #730100",
"H  c #7C0200",
"J  c #750A01",
"K  c #7C0B01",
"L  c #6D1602",
"P  c #621509",
"I  c #7C1608",
"U  c #721306",
"Y  c #52330F",
"T  c #462F10",
"R  c #6F2008",
"E  c #7C2A0C",
"W  c #683C09",
"Q  c #633A0C",
"!  c #71360E",
"~  c #6A2811",
"^  c #623813",
"/  c #7F3417",
"(  c #783E1D",
")  c #66400C",
"_  c #69461D",
"`  c #744C1A",
"'  c #774E17",
"]  c #7C5A14",
"[  c #75501A",
"{  c #7E5A1D",
"}  c #4A4333",
"|  c #765121",
" . c #795324",
".. c #615437",
"X. c #5C5443",
"o. c #840100",
"O. c #810C02",
"+. c #8B0C01",
"@. c #940600",
"#. c #940900",
"$. c #9B0A00",
"%. c #8B1404",
"&. c #8A1903",
"*. c #951303",
"=. c #9C1301",
"-. c #9E1802",
";. c #971609",
":. c #9C1E09",
">. c #A41303",
",. c #AB1401",
"<. c #AF1B04",
"1. c #B21502",
"2. c #B91904",
"3. c #BF1F0D",
"4. c #892C07",
"5. c #88270C",
"6. c #A42505",
"7. c #B02207",
"8. c #BF2002",
"9. c #B12C09",
"0. c #B33310",
"q. c #CA1E0A",
"w. c #C51A0A",
"e. c #C52403",
"r. c #CA2804",
"t. c #D4220C",
"y. c #DB240C",
"u. c #CE3906",
"i. c #D23806",
"p. c #D4390A",
"a. c #85471E",
"s. c #805D1E",
"d. c #AF4615",
"f. c #8D5A35",
"g. c #836220",
"h. c #886926",
"j. c #87632E",
"k. c #916F2D",
"l. c #926E31",
"z. c #957234",
"x. c #9A7935",
"c. c #9C7A3B",
"v. c #91723D",
"b. c #CA4614",
"n. c #CB4815",
"m. c #D74912",
"M. c #EB4B0B",
"N. c #ED5A15",
"B. c #F15610",
"V. c #806D4B",
"C. c #82704E",
"Z. c #8F7B4E",
"A. c #9F7846",
"S. c #8B7A55",
"D. c #A77F4D",
"F. c #A3813D",
"G. c #9F804A",
"H. c #A58444",
"J. c #AA8945",
"K. c #AC8753",
"L. c #AB8C54",
"P. c #B68A53",
"I. c #AF9055",
"U. c #B49452",
"Y. c #B0905F",
"T. c #BD9E5D",
"R. c #BA9A57",
"E. c #A78E60",
"W. c #C5A768",
"Q. c #C6A96C",
"!. c #C6A86A",
"~. c #CAAE73",
"^. c #CEB174",
"/. c #D1B477",
"(. c #D6B97D",
"). c #D2B37A",
"_. c #DABD81",
"`. c #ECD094",
"'. c None",
/* pixels */
"'.'.'.'.'.      % - & o X   & '.'.'.'.'.'.'.'.'.'.'.'.'.'.'.'.'.",
"'.'.'.'.'.O O X o - : ; : : & a '.'.'.'.'.'.'.'.'.'.'.'.'.'.'.'.",
"'.'.'.X , < ; , p h x z g h a t 6 m '.'.'.'.'.'.'.'.'.'.'.'.'.'.",
"'.'.o ; & o o o & ; p f z h t A #.3.;.'.'.'.'.'.'.'.'.'.'.'.'.'.",
"'.X & O X o , 1 a k l z z h 8 o.q.y.t.3.'.'.'.'.'.'.'.'.'.'.'.'.",
"'.o X X : p p ; < < ; p k j M @.1.t.w.t.*.D '.'.'.'.'.'.'.'.'.'.",
"X X X , p ; & % & < p x l t G @.$.1.+.>.K K '.'.'.'.'.'.'.'.'.'.",
"  '.- ; % X & , < : l l a 8 o.o.G #.S $.S o.M '.'.'.'.'.'.'.'.'.",
"'.'.& o X , a < & a l < p 8 o.>.G G A H P C m '.'.'.'.'.'.'.'.'.",
"'.o % X , a < & < h a a k 8 o.,.F m N f.K.^ '.'.'.'.'.'.'.'.'.'.",
"'.o o , a < % - p a ; k h 7 @.1.F W _ Z.E.| '.'.'.'.'.'.'.'.'.'.",
"'.X : a < & & p a ; p z p c #.1.L ] z.X.V. .'.'.'.'.'.'.'.'.'.'.",
"'.  O < - o - p ; & < f * S $.1.L ] F.} C.| '.'.=.;.'.'.'.'.'.'.",
"'.'.X ; o o < p & & a p = S $.1.L ] J.u S.D.H #.p.b.'.'.'.'.'.'.",
"'.'.X % X , p - % : a ; = S $.1.L ] U...S.K.*.8.M.b.'.'.'.'.'.'.",
"'.'.X o O 1 < % X < p ; $ S $.,.L g.W.Q.~.H.*.e.B.n.'.'.'.'.'.'.",
"'.'.  X X ; & X - a ; % @ S $.,.L c.~.^.Q.( >.e.m.0.'.'.'.'.'.'.",
"'.'.X   '.% o o p p ; % @ S @.+.` T.^.W.v.q b %.J '.'.'.'.'.'.'.",
"'.'.  '.  X X   < ; % X . m o.I z.T.U.z.q 1 O   '.'.'.'.'.'.'.'.",
"'.'.'.'.  '.'.X & o + 4 % 7 H ~ z.{ [ '.O 1   '.'.'.'.'.'.'.'.'.",
"'.'.'.'.'.'.'.+ 3 F >.-.r 9 H C Q '.'.'.X X '.'.'.'.'.'.'.'.'.'.",
"'.'.'.'.'.'.o.$.,.p.m.<.i.6.S U :.'.'.Y y e '.'.'.'.'.'.'.'.'.'.",
"'.'.'.'.'.'.O.&.9.N.7.,.r.u.S 5.9.&.` j.c.L.'.'.'.'.'.'.'.'.'.'.",
"'.'.'.'.'.'.' L.P.d.J #.1.e.K D <.4.g.D.^.(. .'.'.'.'.'.'.'.'.'.",
"'.'.'.'.'.' H.(.`.Y.> + n C 9 c #.4.h.R.).T.[ '.'.'.'.'.'.'.'.'.",
"'.'.'.'.'.{ T.(._.).i X o % - 0 4 J ! k.x.k.'.'.'.'.'.'.'.'.'.'.",
"'.'.'.'.'.[ J.!.Y.G.E +.+     3 D v 0 T ) '.'.'.'.'.'.'.'.'.'.'.",
"'.'.'.'.'.'.{ F.a.5.%.F > d g Z S 6 o O '.'.'.'.'.'.'.'.'.'.'.'.",
"'.'.'.'.'.. r V S H M $ ; a d k j 2 - '.'.'.'.'.'.'.'.'.'.'.'.'.",
"'.'.'.'.'.  O # c m 2 X & & - - -   O '.'.'.'.'.'.'.'.'.'.'.'.'.",
"'.'.'.'.'.'.  X '.'.'.  X         '.'.'.'.'.'.'.'.'.'.'.'.'.'.'.",
"'.'.'.'.'.'.'.'.'.'.'.'.'.'.'.'.'.'.'.'.'.'.'.'.'.'.'.'.'.'.'.'."
};
