/* XPM */
static char *result[] = {
/* columns rows colors chars-per-pixel */
"32 32 165 2 ",
"   c #010203",
".  c #030609",
"X  c #05090C",
"o  c #090B0D",
"O  c #0A0603",
"+  c #1D0101",
"@  c #130807",
"#  c #180508",
"$  c #190E0F",
"%  c #160304",
"&  c #191309",
"*  c #060C12",
"=  c #0A0E13",
"-  c #140F14",
";  c #0C1116",
":  c #0E141A",
">  c #101316",
",  c #181116",
"<  c #11161B",
"1  c #1E161B",
"2  c #13181E",
"3  c #181B1E",
"4  c #200506",
"5  c #2D0204",
"6  c #210909",
"7  c #290C0B",
"8  c #350704",
"9  c #3B0605",
"0  c #32070A",
"q  c #340B0B",
"w  c #3D0C0F",
"e  c #321F0F",
"r  c #341104",
"t  c #2A0E10",
"y  c #2A1417",
"u  c #241A1C",
"i  c #331A1E",
"p  c #282217",
"a  c #2B261B",
"s  c #2D281D",
"d  c #161B21",
"f  c #191F24",
"g  c #1E2226",
"h  c #1D242A",
"j  c #22262C",
"k  c #22292E",
"l  c #312C22",
"z  c #252B31",
"x  c #292F34",
"c  c #2B3136",
"v  c #2E343B",
"b  c #440301",
"n  c #4C0304",
"m  c #400C0E",
"M  c #440E03",
"N  c #540001",
"B  c #5C0201",
"V  c #5B0E07",
"C  c #550E09",
"Z  c #5E0C09",
"A  c #650101",
"S  c #690201",
"D  c #740300",
"F  c #7C0300",
"G  c #750B03",
"H  c #7A0C01",
"J  c #691004",
"K  c #631509",
"L  c #7F1202",
"P  c #701A06",
"I  c #472F0E",
"U  c #5D360B",
"Y  c #662D0F",
"T  c #62240B",
"R  c #76210D",
"E  c #7C2715",
"W  c #7E2917",
"Q  c #7E3C11",
"!  c #453721",
"~  c #52401C",
"^  c #6F4516",
"/  c #6E4817",
"(  c #6D481A",
")  c #644315",
"_  c #714118",
"`  c #734D19",
"'  c #5E4D32",
"]  c #624C2A",
"[  c #635024",
"{  c #7C5721",
"}  c #7E5C2B",
"|  c #534F47",
" . c #676256",
".. c #840100",
"X. c #8A0300",
"o. c #820C02",
"O. c #8D0A01",
"+. c #930600",
"@. c #940C01",
"#. c #9B0A00",
"$. c #8E1302",
"%. c #9B1101",
"&. c #981D06",
"*. c #A50F00",
"=. c #A41301",
"-. c #A91101",
";. c #A61808",
":. c #B31603",
">. c #B51907",
",. c #BB1803",
"<. c #B21A09",
"1. c #942904",
"2. c #943208",
"3. c #872814",
"4. c #A12003",
"5. c #A32807",
"6. c #AF2E05",
"7. c #A5320B",
"8. c #BA3706",
"9. c #C41C07",
"0. c #C31C09",
"q. c #CB1F0A",
"w. c #CF2009",
"e. c #D7230C",
"r. c #DA230C",
"t. c #CB3205",
"y. c #DA3606",
"u. c #874218",
"i. c #B34B11",
"p. c #924828",
"a. c #805C2C",
"s. c #865D28",
"d. c #866229",
"f. c #926F2F",
"g. c #846030",
"h. c #8E6B32",
"j. c #916F3B",
"k. c #987634",
"l. c #9C773A",
"z. c #987C3F",
"x. c #95723A",
"c. c #947140",
"v. c #9F7E48",
"b. c #8E7B51",
"n. c #988150",
"m. c #A58442",
"M. c #A4834C",
"N. c #AE8F5A",
"B. c #AB8A56",
"V. c #B69654",
"C. c #B99955",
"Z. c #B69758",
"A. c #AD8D60",
"S. c #BB9D61",
"D. c #BFA163",
"F. c #C29261",
"G. c #C3A669",
"H. c #C5A96E",
"J. c #C9AB6D",
"K. c #CCAF72",
"L. c #CEB174",
"P. c #D2B57A",
"I. c #E0C387",
"U. c #E3C78D",
"Y. c None",
/* pixels */
"Y.Y.Y.Y.Y.Y.Y.Y.Y.Y.Y.Y.Y.Y.Y.Y.Y.Y.Y.Y.Y.Y.Y.Y.Y.Y.Y.Y.Y.Y.Y.Y.",
"Y.Y.Y.Y.Y.Y.Y.Y.Y.Y.Y.Y.  . X = > o Y.    Y.Y.Y.Y.Y.Y.Y.Y.Y.Y.Y.",
"Y.Y.Y.Y.Y.Y.Y.Y.Y.Y.o > > : o * f c < . . . Y.Y.Y.Y.Y.Y.Y.Y.Y.Y.",
"Y.Y.Y.Y.Y.Y.Y.Y.Y.= < = = = : < 2 j c j ; ; X Y.Y.Y.Y.Y.Y.Y.Y.Y.",
"Y.Y.Y.Y.Y.Y.Y.Y.. X . . . . < f z j f j u t 7 Y.Y.Y.Y.Y.Y.Y.Y.Y.",
"Y.Y.Y.Y.Y.Y.    . < 2 2 < < j k k k d w G >.0.<.o.Y.Y.Y.Y.Y.Y.Y.",
"Y.Y.Y.Y.Y.  Y.. < d d : : d h v c j m O.,.e.:.w.q.;.Y.Y.Y.Y.Y.Y.",
"Y.Y.Y.Y.Y.Y.Y.2 d * * ; f z c k g m F *.e.e.;.O.>.$.o.Y.Y.Y.Y.Y.",
"Y.Y.Y.Y.Y.Y.= : * X 2 2 z c d h i D O.@.q.9.0.H O.F ..B Y.Y.Y.Y.",
"Y.Y.Y.Y.Y.. = X o < : < j d f z N ..O.D 0.*.:.#.D F A B Y.Y.Y.Y.",
"Y.Y.Y.Y.Y.X . = d : ; d d d v d A +.$.D -.D -.=.S ..N Y.Y.Y.Y.Y.",
"Y.Y.Y.Y.Y.. . < < * < d ; z z q F +.D ..+.A O.G V K M Y.Y.Y.Y.Y.",
"Y.Y.Y.Y.    o 3 ; X d = = c d 0 F +.o.S S T Y s.m.' Y.Y.Y.Y.Y.Y.",
"Y.Y.Y.Y.  Y.: < X < < * < h , B ..*.$.Q } ~ [ V.H. .Y.Y.Y.Y.Y.Y.",
"Y.Y.Y.Y.Y.Y.> = o d * o d d , A ..-.P x.z.| p H.H.s Y.Y.Y.Y.Y.Y.",
"Y.Y.Y.Y.Y.Y.= . = < . = f d - A X.=.R m.m.a s H.H.! Y.Y.Y.Y.Y.Y.",
"Y.Y.Y.Y.Y.Y.o   o ; . ; g : ; n ..*.R Z.S.s l H.L.N.Y.Y.Y.Y.Y.Y.",
"Y.Y.Y.Y.Y.Y.    o = . ; d : = 5 ..*.E G.L.b.b.L.P.c.Y.Y.Y.Y.Y.Y.",
"Y.Y.Y.Y.Y.Y.Y.Y.Y.. . o : : X 5 ..-.W H.K.K.K.S.j.Y.Y.Y.Y.Y.Y.Y.",
"Y.Y.Y.Y.Y.Y.Y.Y.Y.& ] e : * . # S #.E G.K.L.S.d.` Y.Y.Y.Y.Y.Y.Y.",
"Y.Y.Y.Y.Y.Y.Y.Y.d.n.N.3.8 . r @ N +.P m.Z.M.c.` Y.Y.Y.Y.Y.Y.Y.Y.",
"Y.Y.Y.Y.Y.Y.Y.Y.{ D.F.@.@.8 1.8.H ..J Q _ Y._ U Y.Y.Y.Y.Y.Y.Y.Y.",
"Y.Y.Y.Y.Y.Y.Y.Y.Y.l.j.9 O.+.=.y.6.D o.5.1.p.v.N.B.Y.Y.Y.Y.Y.Y.Y.",
"Y.Y.Y.Y.Y.Y.Y.Y.Y.) I   6 B #.*.t.L D 7.i.l.G.I.U.g.Y.Y.Y.Y.Y.Y.",
"Y.Y.Y.Y.Y.Y.Y.Y.Y.X > 3 X X b H =.;.D G 2.k.C.J.L.a.Y.Y.Y.Y.Y.Y.",
"Y.Y.Y.Y.Y.Y.Y.Y.. : f c > % * $ # q K B H u.f.x.h.Y.Y.Y.Y.Y.Y.Y.",
"Y.Y.Y.Y.Y.Y.Y.Y.. : < h j b 8 6 7 7 7 b A Y.Y.Y.Y.Y.Y.Y.Y.Y.Y.Y.",
"Y.Y.Y.Y.Y.Y.Y.Y.. * : d j 7 A X.=.=.-.=.C g h X Y.Y.Y.Y.Y.Y.Y.Y.",
"Y.Y.Y.Y.Y.Y.Y.Y.Y.. * < j u b S X.X...S y h h <   Y.Y.Y.Y.Y.Y.Y.",
"Y.Y.Y.Y.Y.Y.Y.Y.Y.Y.. * : j + b b 9 q 1 : : = . Y.Y.Y.Y.Y.Y.Y.Y.",
"Y.Y.Y.Y.Y.Y.Y.Y.Y.Y.Y.. X ; Y.Y.Y.. X * X   Y.Y.Y.Y.Y.Y.Y.Y.Y.Y.",
"Y.Y.Y.Y.Y.Y.Y.Y.Y.Y.Y.Y.Y.Y.Y.Y.Y.Y.Y.Y.Y.Y.Y.Y.Y.Y.Y.Y.Y.Y.Y.Y."
};
