/* XPM */
static char *result[] = {
/* columns rows colors chars-per-pixel */
"32 32 178 2 ",
"   c #010204",
".  c #090001",
"X  c #040609",
"o  c #0B0509",
"O  c #06090D",
"+  c #0A0B0E",
"@  c #150000",
"#  c #120B05",
"$  c #1F0404",
"%  c #14110D",
"&  c #070C11",
"*  c #090E14",
"=  c #140D10",
"-  c #1B0B10",
";  c #0D1115",
":  c #0D141A",
">  c #1A1914",
",  c #12161A",
"<  c #13191E",
"1  c #1C191B",
"2  c #2E0505",
"3  c #280B06",
"4  c #250A0A",
"5  c #330101",
"6  c #3C0505",
"7  c #3E0803",
"8  c #3C0B0D",
"9  c #3C180A",
"0  c #240C10",
"q  c #29161A",
"w  c #301215",
"e  c #30230F",
"r  c #21201F",
"t  c #302617",
"y  c #3F2613",
"u  c #191E23",
"i  c #151C22",
"p  c #3E1F23",
"a  c #1D2328",
"s  c #2A2227",
"d  c #23292E",
"f  c #2A2B2B",
"g  c #302623",
"h  c #252B31",
"j  c #292F35",
"k  c #2A3036",
"l  c #30363D",
"z  c #31383E",
"x  c #420304",
"c  c #460F04",
"v  c #4E0906",
"b  c #440608",
"n  c #460B0B",
"m  c #4A0401",
"M  c #560201",
"N  c #5C0300",
"B  c #5F0A02",
"V  c #5B0F09",
"C  c #550A03",
"Z  c #431305",
"A  c #5D1C08",
"S  c #650202",
"D  c #6C0400",
"F  c #680801",
"G  c #620F05",
"H  c #750300",
"J  c #7A0100",
"K  c #740B03",
"L  c #790801",
"P  c #66110B",
"I  c #6A1D05",
"U  c #761809",
"Y  c #432C0B",
"T  c #433117",
"R  c #503E18",
"E  c #553B14",
"W  c #68240D",
"Q  c #64240A",
"!  c #7F2507",
"~  c #7C230D",
"^  c #663512",
"/  c #713E1D",
"(  c #6C4B15",
")  c #784017",
"_  c #704B15",
"`  c #76491C",
"'  c #7D5217",
"]  c #7A501B",
"[  c #7E5A1B",
"{  c #624A27",
"}  c #6A4E25",
"|  c #6B5628",
" . c #63522B",
".. c #725825",
"X. c #6E5736",
"o. c #766336",
"O. c #7C6C49",
"+. c #850300",
"@. c #8B0500",
"#. c #840B01",
"$. c #8C0E01",
"%. c #900400",
"&. c #940B00",
"*. c #9D0D01",
"=. c #901103",
"-. c #9D1004",
";. c #9E1C02",
":. c #A20F01",
">. c #A31302",
",. c #AC1302",
"<. c #A11902",
"1. c #A01F0A",
"2. c #B21404",
"3. c #BA1A05",
"4. c #B91808",
"5. c #9B2207",
"6. c #84370C",
"7. c #802910",
"8. c #A1210B",
"9. c #A62906",
"0. c #A0300C",
"q. c #AC3509",
"w. c #BC3207",
"e. c #C51C07",
"r. c #CC1F09",
"t. c #C42F04",
"y. c #D7220B",
"u. c #CC3B0A",
"i. c #8D410F",
"p. c #80491A",
"a. c #834E24",
"s. c #85542B",
"d. c #8F532C",
"f. c #8A5E2A",
"g. c #8F5E33",
"h. c #856223",
"j. c #91712B",
"k. c #896636",
"l. c #8C6A33",
"z. c #916B31",
"x. c #9C6836",
"c. c #987632",
"v. c #9F7E3F",
"b. c #A17F3D",
"n. c #D65111",
"m. c #D65817",
"M. c #8A7954",
"N. c #978254",
"B. c #998355",
"V. c #A7864C",
"C. c #A78B4C",
"Z. c #AC8E4C",
"A. c #B3834D",
"S. c #B08F4F",
"D. c #B4934D",
"F. c #A68957",
"G. c #AF8D54",
"H. c #A58E5C",
"J. c #AB925F",
"K. c #B3945A",
"L. c #BA9B58",
"P. c #B99955",
"I. c #BFA15E",
"U. c #A89160",
"Y. c #BEA36B",
"T. c #B8A273",
"R. c #C3A667",
"E. c #C3A469",
"W. c #C7A96F",
"Q. c #C8AA6D",
"!. c #C3A870",
"~. c #CBAE71",
"^. c #CEB173",
"/. c #D2B576",
"(. c #D1B579",
"). c #D5B87B",
"_. c #D8BB7F",
"`. c None",
/* pixels */
"`.`.`.`.`.`.`.`.`.`.`.      `.`.`.`.`.`.`.`.`.`.`.`.`.`.`.`.`.`.",
"`.`.`.`.`.`.`.`.`.`.`.    O : , + `.  `.`.`.`.`.`.`.`.`.`.`.`.`.",
"`.`.`.`.`.`.`.`.`.`.`.+ + & * h k ,     `.`.`.`.`.`.`.`.`.`.`.`.",
"`.`.`.`.`.`.`.`.  O O * : , , < k k 1 < ; `.`.`.`.`.`.`.`.`.`.`.",
"`.`.`.`.`.`.    X + ; d l j d a a a u q < & `.`.`.`.`.`.`.`.`.`.",
"`.`.`.`.`.`.  X d j d d h h h a w n P $.V 6 `.`.`.`.`.`.`.`.`.`.",
"`.`.`.`.`.`.`., , : & ; i i a w H ,.r.y.e.3.#.`.`.`.`.`.`.`.`.`.",
"`.`.`.`.`.`.* * O + * , a j p H #.4.e.y.y.4.-.$.`.`.`.`.`.`.`.`.",
"`.`.`.`.`.X X O , < : a l s S J J ,.2.4.2.>.H -.K `.`.`.`.`.`.`.",
"`.`.`.`.`.  X ; , * < l d 8 +.H +.#.>.K :.#.$.H K `.`.`.`.`.`.`.",
"`.`.`.`.`.  X : * O d h 1 S +.D S F &.D *.D +.M `.`.`.`.`.`.`.`.",
"`.`.`.`.`.  O : O ; h i 0 H %.C ` ] W N H A W W 5.`.`.`.`.`.`.`.",
"`.`.`.`.`.`.& * X < u : 6 +.#./ |  .C.k.s.R o.x.n.8.`.`.`.`.`.`.",
"`.`.`.`.`.`.X & X < : & x @.U b.M.1 F./.T.f O.v.n.8.`.`.`.`.`.`.",
"`.`.`.`.`.`.  X + < ; & b @.~ S.O.> J./.J.> M.A.m.8.`.`.`.`.`.`.",
"`.`.`.`.`.`.`.  * , O O b @.a.E.E.B.~.).(.B.!.d.0.`.`.`.`.`.`.`.",
"`.`.`.`.`.`.`.  X & X ; n @.s.Q.^.~.K.E.K./.~.Y . `.`.`.`.`.`.`.",
"`.`.`.`.`.`.`.`.`.X + : 2 F h.L.~.~.V.l.G.~.X.% `.`.`.`.`.`.`.`.",
"`.`.`.`.`.`.`.`.    4 o o n [ j.Z.R.Q.E.F.} r `.`.`.`.`.`.`.`.`.",
"`.`.`.`.`.`.`.`.  `.@.7 9 G ! 6.i.p.{ s.`.`.X `.`.`.`.`.`.`.`.`.",
"`.`.`.`.`.`.`.`.`.`.%.L q.0.@.;.9.q.I w.7.e # `.`.`.`.`.`.`.`.`.",
"`.`.`.`.`.`.`.`.`.`.5 D 3.u.6.z.S.x.9.t./ l.k.`.`.`.`.`.`.`.`.`.",
"`.`.`.`.`.`.`.`.`.`.X = K <.' L._.V.^ c } R.Q.`.`.`.`.`.`.`.`.`.",
"`.`.`.`.`.`.`.`.`.`.m 4 - G ' S.Q.b.t * ..D.b.`.`.`.`.`.`.`.`.`.",
"`.`.`.`.`.`.`.`.`.`.H +.B 3 E h.c.` 7 2 Y ( _ `.`.`.`.`.`.`.`.`.",
"`.`.`.`.`.`.`.`.`.`.N H M = , t T s v S X # `.`.`.`.`.`.`.`.`.`.",
"`.`.`.`.`.`.`.`.`.`.m 5 o O & * * ; * @ X `.`.`.`.`.`.`.`.`.`.`.",
"`.`.`.`.`.`.`.`.`.`.`.`.              `.`.`.`.`.`.`.`.`.`.`.`.`.",
"`.`.`.`.`.`.`.`.`.`.`.`.`.`.`.`.`.`.`.`.`.`.`.`.`.`.`.`.`.`.`.`.",
"`.`.`.`.`.`.`.`.`.`.`.`.`.`.`.`.`.`.`.`.`.`.`.`.`.`.`.`.`.`.`.`.",
"`.`.`.`.`.`.`.`.`.`.`.`.`.`.`.`.`.`.`.`.`.`.`.`.`.`.`.`.`.`.`.`.",
"`.`.`.`.`.`.`.`.`.`.`.`.`.`.`.`.`.`.`.`.`.`.`.`.`.`.`.`.`.`.`.`."
};
