/* XPM */
static char *result[] = {
/* columns rows colors chars-per-pixel */
"32 32 176 2 ",
"   c #020305",
".  c #030609",
"X  c #0B0608",
"o  c #05090D",
"O  c #0A0C0E",
"+  c #1B0202",
"@  c #180807",
"#  c #1E0508",
"$  c #140B0B",
"%  c #1C0B0B",
"&  c #070C12",
"*  c #090E13",
"=  c #1F0D10",
"-  c #0C1116",
";  c #0C1319",
":  c #11161A",
">  c #15191D",
",  c #18161A",
"<  c #2B0507",
"1  c #2D0B0C",
"2  c #230101",
"3  c #340302",
"4  c #3C0704",
"5  c #3F100F",
"6  c #391415",
"7  c #331215",
"8  c #352208",
"9  c #3E2F1A",
"0  c #161C21",
"q  c #1A1E23",
"w  c #2B1E20",
"e  c #1C2126",
"r  c #1E242A",
"t  c #282427",
"y  c #2D2920",
"u  c #21252B",
"i  c #28252A",
"p  c #23292F",
"a  c #262C32",
"s  c #292F34",
"d  c #2C3238",
"f  c #4C0201",
"g  c #4D080A",
"h  c #440907",
"j  c #540201",
"k  c #5A0202",
"l  c #530A02",
"z  c #590D04",
"x  c #4E1E0C",
"c  c #5D1005",
"v  c #481512",
"b  c #610100",
"n  c #6C0501",
"m  c #640802",
"M  c #6E0A02",
"N  c #750300",
"B  c #7B0200",
"V  c #730D02",
"C  c #780B02",
"Z  c #611609",
"A  c #761504",
"S  c #711209",
"D  c #7E1306",
"F  c #4D2C0B",
"G  c #572008",
"H  c #5C260B",
"J  c #5A360F",
"K  c #7B3C1E",
"L  c #68430E",
"P  c #6B4F1F",
"I  c #644514",
"U  c #7D401A",
"Y  c #714C19",
"T  c #744714",
"R  c #75521A",
"E  c #48402F",
"W  c #514A3A",
"Q  c #5A513F",
"!  c #774820",
"~  c #735423",
"^  c #7E5921",
"/  c #7E5E2B",
"(  c #785425",
")  c #76643E",
"_  c #6E6144",
"`  c #786947",
"'  c #840200",
"]  c #8E0500",
"[  c #840900",
"{  c #8C0B01",
"}  c #920600",
"|  c #950B00",
" . c #9B0F01",
".. c #891702",
"X. c #861608",
"o. c #971102",
"O. c #9C1501",
"+. c #9C1E0A",
"@. c #A20E01",
"#. c #A11301",
"$. c #AA1201",
"%. c #AB1A01",
"&. c #B21604",
"*. c #B61801",
"=. c #BD1905",
"-. c #9B2B06",
";. c #9A3C0D",
":. c #8A2712",
">. c #8A3517",
",. c #AC2D08",
"<. c #BC2103",
"1. c #B62906",
"2. c #B13109",
"3. c #B53F08",
"4. c #AE3510",
"5. c #B13610",
"6. c #C51C06",
"7. c #C11E0A",
"8. c #CC1F08",
"9. c #C42A05",
"0. c #C72804",
"q. c #D12F05",
"w. c #C0370F",
"e. c #DF3B06",
"r. c #D43608",
"t. c #D53405",
"y. c #96460E",
"u. c #834C13",
"i. c #81591A",
"p. c #804F24",
"a. c #894A25",
"s. c #8F532F",
"d. c #845F29",
"f. c #885F29",
"g. c #8A6628",
"h. c #93712F",
"j. c #9B6B37",
"k. c #87703D",
"l. c #987638",
"z. c #A07E38",
"x. c #D3420A",
"c. c #DF4009",
"v. c #C54112",
"b. c #D64C11",
"n. c #D75017",
"m. c #E64408",
"M. c #EA4508",
"N. c #E55414",
"B. c #9C7A42",
"V. c #927E53",
"C. c #A17F46",
"Z. c #AC7C4B",
"A. c #A1813A",
"S. c #948059",
"D. c #9E885A",
"F. c #A38044",
"G. c #A8874E",
"H. c #AD8A4D",
"J. c #B08F4D",
"K. c #AD8A53",
"L. c #B49453",
"P. c #B2935B",
"I. c #B99A5D",
"U. c #BD9E68",
"Y. c #B69B65",
"T. c #BEA368",
"R. c #C1A262",
"E. c #C3A56C",
"W. c #CBAE6F",
"Q. c #CCAF71",
"!. c #CDB073",
"~. c #D2B576",
"^. c #D3B67A",
"/. c #DABD80",
"(. c #DCC082",
"). c None",
/* pixels */
").).).).).).).).).).).).).      ).).).).).).).).).).).).).).).).",
").).).).).).).).).).).).).).  * : : ).).).).).).).).).).).).).).",
").).).).).).).).).).).).).).O O - a u -   X ).).).).).).).).).).",
").).).).).).).).).).).o - : p p , - p d : O * ).).).).).).).).).",
").).).).).).).).).).* - & & ; : 0 u q d a * q ).  ).).).).).).).",
").).).).).).).).  o o . & 0 p a a s r u a : r : O ).).).).).).).",
").).).).).).).).).  o q p u q u u u u , 6 6 q ; O ).).).).).).).",
").).).).).).).).).).0 q 0 ; q a u > g n &.=.X.v $ ).).).).).).).",
").).).).).).).).).: : - ; u p i 7 g ] @.6.8.8.0.A ).).).).).).).",
").).).).).).).).o * o O q q q w j N N { =.&.&.6.o.).).).).).).).",
").).).).).).).  . . O > 0 0 ; : 1 k B @.@.[ | | | { ).).).).).).",
").).).).).).).).. - ; ; & & ; ; k ' n B n N  .N B B n ).).).).).",
").).).).).).).).o o & o o ; - $ N O.K p.! S ' n m j j j ).2.).).",
").).).).).).).).).  . . - - o h } X.F.k.) K.K x R J ).] <.N.).).",
").).).).).).).).).).. & * & # N | s.T.Q _ ~.Y.W ~ ).).$.r.N.+.).",
").).).).Y ).).).b 3 @ $ X < n } >.I.Y.y V.^._ E ~ ).f &.r.n.).).",
").).).g.L.U.K.:.@.O.V n b B [ u.H.Q.T.D.!.^.V.S.).).@ z ..).).).",
").).L R h.J.(.Z.1.,.A V C S T A.R.!.!.Y.U.P.T.Y.).).> . ).).).).",
").).).).).p.R.G.2.v.4.5.b.x.y.R l.R.W.I.l.B.P.).).O - ).).).).).",
").).).).).R C.).).).] $.0.M.m.3.F P d.g.j.a.Z ).).O X ).).).).).",
").).).).).).).).).).l { *.q.m.M.-.1 G ,.%.2.M H / 9 ).).).).).).",
").).).).).).).).).2 & % l O.9.e.m.-.x.w.$.c.;.g.B.B.).).).).).).",
").).).).).).).).).C 4 X & $ 4 X.<.<.q.#.} 1.u.L.^.E.( ).).).).).",
").).).).).).).).f { #.g . . & $ h z Z ).).).T l.R.G.).).).).).).",
").).).).).).).).j B v t : * ; * o ; 0 ).).).8 I g.).).).).).).).",
").).).).).).).).f < : * & ; ; $ l 1 & . * - o $ ).).).).).).).).",
").).).).).).).).).. & . & - * l D t - ; - & O ).).).).).).).).).",
").).).).).).).).).    . & * X f % * * - - . ).).).).).).).).).).",
").).).).).).).).).).  . o X 3 4 O . o - . ).).).).).).).).).).).",
").).).).).).).).).).)..   + ).2 . . o . ).).).).).).).).).).).).",
").).).).).).).).).).).).).).).).).  . ).).).).).).).).).).).).).",
").).).).).).).).).).).).).).).).).).).).).).).).).).).).).).).)."
};
