/* XPM */
static char *result[] = {
/* columns rows colors chars-per-pixel */
"32 32 184 2 ",
"   c #020305",
".  c #04060A",
"X  c #09070A",
"o  c #06090D",
"O  c #0A0A0D",
"+  c #0F0606",
"@  c #100000",
"#  c #1B0404",
"$  c #13090C",
"%  c #1C0C0B",
"&  c #060D12",
"*  c #090D11",
"=  c #150F11",
"-  c #0C1015",
";  c #0D1419",
":  c #111313",
">  c #1C1B15",
",  c #12161B",
"<  c #14181D",
"1  c #2B0609",
"2  c #2E0A0D",
"3  c #270405",
"4  c #340C07",
"5  c #380A06",
"6  c #300809",
"7  c #3B0C0B",
"8  c #331D0C",
"9  c #241115",
"0  c #381215",
"q  c #34250E",
"w  c #282317",
"e  c #362711",
"r  c #35241D",
"t  c #141B20",
"y  c #181E23",
"u  c #2C1E21",
"i  c #1B2127",
"p  c #1C242A",
"a  c #202327",
"s  c #22252A",
"d  c #23292F",
"f  c #2A272C",
"g  c #362226",
"h  c #242B30",
"j  c #292F35",
"k  c #3C3A34",
"l  c #440302",
"z  c #4B0303",
"x  c #470B08",
"c  c #540302",
"v  c #5E0302",
"b  c #5C0C04",
"n  c #570708",
"m  c #491604",
"M  c #5C120C",
"N  c #551A08",
"B  c #431A1B",
"V  c #581210",
"C  c #630101",
"Z  c #6C0300",
"A  c #640C03",
"S  c #6C0C03",
"D  c #740300",
"F  c #7C0400",
"G  c #740C03",
"H  c #6B1209",
"J  c #661F0C",
"K  c #791504",
"L  c #75140B",
"P  c #721606",
"I  c #543509",
"U  c #5F2818",
"Y  c #5C2514",
"T  c #7B260A",
"R  c #712909",
"E  c #76370F",
"W  c #433924",
"Q  c #763D23",
"!  c #6C4613",
"~  c #734F16",
"^  c #765218",
"/  c #77531B",
"(  c #5D5031",
")  c #614927",
"_  c #784125",
"`  c #7C5829",
"'  c #795228",
"]  c #6B5D3F",
"[  c #7F6F4C",
"{  c #736648",
"}  c #830300",
"|  c #890500",
" . c #8C0C01",
".. c #880F09",
"X. c #940600",
"o. c #950C00",
"O. c #9C0D00",
"+. c #801304",
"@. c #8A1707",
"#. c #931206",
"$. c #9F1101",
"%. c #9A1F08",
"&. c #A10D00",
"*. c #A31304",
"=. c #AA1402",
"-. c #A71A02",
";. c #B71907",
":. c #BC1B04",
">. c #B21501",
",. c #80290D",
"<. c #93300B",
"1. c #863214",
"2. c #AA2609",
"3. c #B52105",
"4. c #BC2B05",
"5. c #A0310E",
"6. c #BB3A12",
"7. c #CD1F09",
"8. c #CF2009",
"9. c #C62703",
"0. c #C63E0F",
"q. c #CA3C0B",
"w. c #D53305",
"e. c #DD3C07",
"r. c #D73B07",
"t. c #82421E",
"y. c #82581F",
"u. c #BB430C",
"i. c #844A25",
"p. c #895728",
"a. c #855B20",
"s. c #874F34",
"d. c #845D33",
"f. c #915837",
"g. c #925938",
"h. c #86622B",
"j. c #916F2D",
"k. c #8D6934",
"l. c #9E7037",
"z. c #977438",
"x. c #97783F",
"c. c #997B3B",
"v. c #A17F39",
"b. c #D3420A",
"n. c #C64113",
"m. c #CE4310",
"M. c #C94B10",
"N. c #D04712",
"B. c #E74408",
"V. c #EB4708",
"C. c #EB4D0D",
"Z. c #E04E12",
"A. c #E75513",
"S. c #86744B",
"D. c #997740",
"F. c #9D7C43",
"G. c #836A53",
"H. c #A77B4F",
"J. c #9F895A",
"K. c #968257",
"L. c #A68647",
"P. c #AA8748",
"I. c #A7884D",
"U. c #AD8554",
"Y. c #AC8B52",
"T. c #AF9252",
"R. c #B39253",
"E. c #B3945C",
"W. c #BD9E5F",
"Q. c #AE9762",
"!. c #BC9E67",
"~. c #BFA263",
"^. c #BEA369",
"/. c #C69B64",
"(. c #C7A96C",
"). c #C9AB6E",
"_. c #C2A66B",
"`. c #CCAE72",
"'. c #CDB173",
"]. c #D3B677",
"[. c #D8BB7F",
"{. c #D5B87D",
"}. c #DDC184",
"|. c None",
/* pixels */
"|.|.|.|.|.|.|.|.|.|.|.|.|.|.|.|.|.|.|.|.|.|.|.|.|.|.|.|.|.|.|.|.",
"|.|.|.|.|.|.|.|.|.|.|.|.|.|.|.|.|.|.|.|.|.|.|.|.|.|.|.|.|.|.|.|.",
"|.|.|.|.|.|.|.|.|.|.  . o : |.|.|.|.|.|.|.|.|.|.|.|.|.|.|.|.|.|.",
"|.|.|.|.|.|.|.|.. . * , i h a $ . |.|.|.|.|.|.|.|.|.|.|.|.|.|.|.",
"|.|.|.|.|.|.  o & ; y p g B M L 7 3 |.|.|.|.|.|.|.|.|.|.|.|.|.|.",
"|.|.|.|.|.  o - ; d j g ..:.7.8.;.*.@.|.|.|.|.|.|.|.|.|.|.|.|.|.",
"|.|.|.|.  . & y h d f v &.=.=.:. . .#.F |.|.|.|.|.|.|.|.|.|.|.|.",
"|.|.|.|.  o t s y d 0 } o.X.D X.$.D } G v |.|.|.|.|.|.|.|.|.|.|.",
"|.|.|.|.. * i t d a n F F | Z D X.F D C Z |.|.|.|.|.|.|.|.|.|.|.",
"|.|.|.|.. * , , y s n C C S _ s.L v Y Q n |.|.|.|.|.|.|.|.|.|.|.",
"|.|.|.|.. < ; ; ; 9 C D K k.( Q.U.G.W E.' |.|.|.|.|.|.|.|.|.|.|.",
"|.|.|.  . ; - , - 2 F o.,.x.k ] {.{ > E.E.|.|.|.|.|.|.|.|.|.|.|.",
"|.|.|.  o ; ; , ; 2 | &.i.z.> ] ].K.w E.{.|.|.|.|.|.|.|.|.|.|.|.",
"|.|.|.  * * * ; ; 1 } O.t._.S.[ ].[.J.^.`.` |.|.|.|.|.|.|.|.|.|.",
"|.|.|.|.o & o * ; 1 } &.f.'.'._.).`.).'.`.` |.|.|.|.|.|.|.|.|.|.",
"|.|.|.|.. . o & ; 1 F O.f.'.'.(.F.x.T.'.`.` |.|.|.|.2.2.|.|.|.|.",
"|.|.|.|.  . o o ; O C #.H.'.`.`.!.R.(.].'.|.|.|.| *.e.n.|.|.|.|.",
"|.|.|.|.|.  o o ; X v L !.].).`.`.`.`.}.U.|.|.|.X.7.C.n.|.|.|.|.",
"|.|.|.|.|.|.. . ; . l H R.].`.`.'.).).I.U |.|.@ } 9.N.0.|.|.|.|.",
"|.|.|.|.|.|.|.  X % x A z.Y.R.R.R.L.p.P |.|.|.  4 K +.|.|.|.|.|.",
"|.|.|.|.|.|.|.|.l S  .A T <.R q e E <.D |.|.|.: :   |.|.|.|.|.|.",
"|.|.|.|.|.|.|.|. .-.q.A =.r.b.R N b.m.G G |.|.< X |.|.|.|.|.|.|.",
"|.|.|.|.|.|.|.o.>.e.m.S >.w.V.V.9.B.A.%.n.|.: < |.|.|.|.|.|.|.|.",
"|.|.|.|.|.|.|.,.2.b.+.F &.:.w.V.9.b.A.3.u.a.) |.|.|.|.|.|.|.|.|.",
"|.|.|.|.|.|.h.^./.1.# x n  .-.9.3.e.M.T l.I.E.|.|.|.|.|.|.|.|.|.",
"|.|.|.|.|.! T.}.{.h.+ & ; = 7 b M J r 8 L.'.P.|.|.|.|.|.|.|.|.|.",
"|.|.|.|.|.^ R.Y.I.1.C l % * ; ; i i y 4 y.j.^ |.|.|.|.|.|.|.|.|.",
"|.|.|.|.|.^ v./ ' L C z C b 5 $ $ % b  .m I |.|.|.|.|.|.|.|.|.|.",
"|.|.|.|.|.~ y.|.|.z + y u A X.O.G  .O.V # |.|.|.|.|.|.|.|.|.|.|.",
"|.|.|.|.|.|.|.|.|.# & , p u Z | Z D x f |.|.|.|.|.|.|.|.|.|.|.|.",
"|.|.|.|.|.|.|.|.|.|.. ; y d 6 c z 3 < h - |.|.|.|.|.|.|.|.|.|.|.",
"|.|.|.|.|.|.|.|.|.|.. * t h = |.|.. * s : |.|.|.|.|.|.|.|.|.|.|."
};
