/* XPM */
static char *result[] = {
/* columns rows colors chars-per-pixel */
"32 32 169 2 ",
"   c #F6570D",
".  c #F7580E",
"X  c #F7590E",
"o  c #F7580F",
"O  c #F7590F",
"+  c #F55B0E",
"@  c #F75A0E",
"#  c #F75A0F",
"$  c #F75B0F",
"%  c #F55D0F",
"&  c #F75B10",
"*  c #F75C10",
"=  c #F65D10",
"-  c #F75D10",
";  c #F75D11",
":  c #F55E10",
">  c #F55F10",
",  c #F65F10",
"<  c #F75E11",
"1  c #F75E12",
"2  c #F75F12",
"3  c #F85A10",
"4  c #F85B10",
"5  c #F3610F",
"6  c #F2630F",
"7  c #EE6D10",
"8  c #EF6C11",
"9  c #EF6D11",
"0  c #EE6F11",
"q  c #EF6D12",
"w  c #EF6E12",
"e  c #EE6F12",
"r  c #F36311",
"t  c #F56010",
"y  c #F46110",
"u  c #F56011",
"i  c #F46210",
"p  c #F46211",
"a  c #F46311",
"s  c #F76012",
"d  c #F16510",
"f  c #F26410",
"g  c #F36410",
"h  c #F26510",
"j  c #F26611",
"k  c #F26711",
"l  c #F36612",
"z  c #F56512",
"x  c #F86012",
"c  c #F86015",
"v  c #F86215",
"b  c #F06910",
"n  c #F16811",
"m  c #F06B11",
"M  c #F26B13",
"N  c #F16C12",
"B  c #F36C13",
"V  c #F36D15",
"C  c #F86816",
"Z  c #F86D16",
"A  c #F96719",
"S  c #F76D1A",
"D  c #FA691B",
"F  c #F96B1C",
"G  c #FA6C1C",
"H  c #F96F1E",
"J  c #EB7211",
"K  c #EB7311",
"L  c #ED7011",
"P  c #EC7211",
"I  c #ED7112",
"U  c #EE7012",
"Y  c #EE7112",
"T  c #EC7312",
"R  c #EB7412",
"E  c #EC7412",
"W  c #ED7414",
"Q  c #EE7615",
"!  c #EE7516",
"~  c #EE7616",
"^  c #EE7717",
"/  c #EC7914",
"(  c #ED7C15",
")  c #F97217",
"_  c #F4721A",
"`  c #F3741B",
"'  c #F3771D",
"]  c #F97118",
"[  c #F97618",
"{  c #FA721F",
"}  c #FA751D",
"|  c #F27B1E",
" . c #F97819",
".. c #F97A1A",
"X. c #F97B1A",
"o. c #F97C1A",
"O. c #F97E1A",
"+. c #FB7320",
"@. c #FB7321",
"#. c #FB7623",
"$. c #F37D20",
"%. c #F37F20",
"&. c #FC7925",
"*. c #FC7E29",
"=. c #FA831C",
"-. c #F3941F",
";. c #F48322",
":. c #F68322",
">. c #F68024",
",. c #F68325",
"<. c #F78126",
"1. c #FB8322",
"2. c #F98523",
"3. c #F78926",
"4. c #FA8A22",
"5. c #FA8C20",
"6. c #FD802A",
"7. c #FD872F",
"8. c #FC8A28",
"9. c #FB892D",
"0. c #F49222",
"q. c #F49720",
"w. c #F79624",
"e. c #FB9522",
"r. c #F49822",
"t. c #F99F25",
"y. c #FC8A30",
"u. c #FF8E36",
"i. c #FF8F37",
"p. c #FE9730",
"a. c #FF9136",
"s. c #FC9E31",
"d. c #FE9E31",
"f. c #FCA428",
"g. c #FDA52C",
"h. c #FEA72E",
"j. c #FCA929",
"k. c #FDAD2A",
"l. c #FDAE2A",
"z. c #FDAF2A",
"x. c #FDAE2B",
"c. c #FEAB2E",
"v. c #FDAD2D",
"b. c #FDB52D",
"n. c #FBB92E",
"m. c #FEBA2F",
"M. c #FEBC2F",
"N. c #FCA131",
"B. c #FFA035",
"V. c #FFA334",
"C. c #FFA036",
"Z. c #FFA236",
"A. c #FFA237",
"S. c #FFA736",
"D. c #FFA637",
"F. c #FFA737",
"G. c #FEAF30",
"H. c #FFA837",
"J. c #FEB130",
"K. c #FEB331",
"L. c #FFB437",
"P. c #FEBD30",
"I. c #FFC135",
"U. c #FFC136",
"Y. c #FFC236",
"T. c #FFCA34",
"R. c #FFD135",
"E. c #FFD036",
"W. c None",
/* pixels */
"W.W.W.W.W.W.W.W.W.W.W.W.W.W.W.W.W.W.W.W.- - - W.W.W.W.W.W.W.W.W.",
"W.W.W.W.W.W.W.W.W.W.W.W.W.W.W.W.W.W.W.& m I I j W.W.W.W.W.W.W.W.",
"W.W.W.W.W.W.W.W.W.W.W.W.W.W.W.W.W.W.W.& 9 K ,.{ X W.W.W.W.W.W.W.",
"W.W.W.W.W.W.W.W.W.W.W.W.W.W.W.W.W.W.W.W.% t.4.c W.W.W.W.W.W.W.W.",
"W.W.W.W.W.W.W.W.W.W.W.W.W.W.W.W.W.W.W.W.W. .) W.W.W.& & * W.W.W.",
"W.W.W.W.W.W.W.W.W.W.W.W.W.W.W.W.W.W.W.W.W.W.W.W.W.a 8 k 4 W.W.W.",
"W.W.W.W.W.W.W.W.W.W.W.W.W.W.W.W.4 * * W.W.W.W.W.a w R I n * W.W.",
"W.W.W.W.W.W.W.W.W.W.W.W.W.W.3 * n = * W.W.W.W.r q E T T 7 o W.W.",
"W.W.W.W.W.W.W.W.W.W.W.W.W.= f k n , W.W.W.W.4 n R T P ! :.5.W.W.",
"W.W.W.W.W.W.W.W.W.W.W.t g M -.N - W.W.W.W.W.4 n E T ~ 3.L.P.< W.",
"W.W.W.W.W.W.W.W.W.W.W.y / q.f.x W.W.W.W.W.W.4 n R J | A.R.m.< W.",
"W.W.W.W.W.W.W.W.W.W.% B r.G.& W.W.W.W.W.W.W.W.j L Q >.C.E.M.< W.",
"W.W.W.W.W.W.W.W.W.: l 0.I.*.; W.W.W.W.t W.W.W.3 h %.i.B.T.j.< W.",
"W.W.W.W.W.W.W.W.W.l ;.H.v.& W.W.W.W.> 0 i W.W.3 d %.u.Z.b.& W.W.",
"W.W.W.W.W.W.W.W.W.G d.K.6.* W.W.W., e ( z W.W.3 d %.a.V.k.* W.W.",
"W.W.W.W.W.W.W.W.W.; 2 s 1 W.W.W.- U W n...W.W.3 d $.D.x.< W.W.W.",
"W.W.W.W.W.W.W.W.W.* W.W.W.W.W.W.- Y 9.Y.X.W.W.3 h $.F.z.O W.W.W.",
"W.W.W.W.W.W.W.W.W.W.W.W.W.W.W.W.- Y y.U.X.W.W.W.+ H S.l.O W.W.W.",
"W.W.W.W.W.W.W.W.W.W.W.W.W.W.W.W.W.u 7.} W.W.W.W.W.v C Z W.W.W.W.",
"W.W.W.W.W.W.W.W.W.W.W.W.W.W.W.W.W.< J.] W.W.W.W.W.W.& & W.W.W.W.",
"W.W.W.W.W.W.W.W.W.W.W.W.W.W.W.* W.- [ W.W.W.W.W.W.W.* W.W.W.W.W.",
"W.W.W.W.W.W.W.W.W.W.W.4 & @ * W.W.* W.W.W.W.W.W.W.W.W.W.W.W.W.W.",
"W.W.W.W.W.W.W.W.W.W.p b V #.- W.W.W.W.W.W.W.h g W.W.W.W.W.W.W.W.",
"W.W.W.W.W.W.W.W.W.W.5 ^ <.+.W.W.W.W.W.W.W.6 ' S # W.W.W.W.W.W.W.",
"W.W.W.W.W.W.W.W.W.D 2.w.@.W.W.W.W.W.W.W.6 ` N.1.  W.W.W.W.W.W.W.",
"W.W.W.W.W.W.W.W.$ A 8.e.W.W.W.W.W.W.W.# _ s.h.=.W.W.W.W.W.W.W.W.",
"W.W.W.W.W.W.W.W.* $ . W.W.W.W.W.W.W.W.F p.c.O.W.W.W.W.W.W.W.W.W.",
"W.W.W.W.W.W.W.W.W.W.W.W.W.W.W.W.W.W.* &.g.o.W.W.W.W.W.W.W.W.W.W.",
"W.W.W.W.W.W.W.W.W.W.W.W.W.W.W.W.W.W.* $ # W.W.W.W.W.W.W.W.W.W.W.",
"W.W.W.W.W.W.W.W.W.W.W.W.W.W.W.W.W.* * W.W.W.W.W.W.W.W.W.W.W.W.W.",
"W.W.W.W.W.W.W.W.W.W.W.W.W.W.W.W.W.W.W.W.W.W.W.W.W.W.W.W.W.W.W.W.",
"W.W.W.W.W.W.W.W.W.W.W.W.W.W.W.W.W.W.W.W.W.W.W.W.W.W.W.W.W.W.W.W."
};
