/* XPM */
static char *result[] = {
/* columns rows colors chars-per-pixel */
"32 32 4 1 ",
"  c #F75C10",
". c #EC7312",
"X c #FF8F35",
"o c None",
/* pixels */
"oooooooooooooooooooooooooooooooo",
"oooooooooooooooooooooooooooooooo",
"oooooooooooooooooooooooooooooooo",
"oooooooooooooooooooooooooooooooo",
"oooooooooooooooooooo ooooooooooo",
"ooooooooooooooooooo oooooooooooo",
"ooooooooooooooooooo oooooooooooo",
"oooooooooooooooooooooooooooooooo",
"oooooooooooooooooooooooooooooooo",
"oooooooooooooooooooooooooooooooo",
"oooooooooooooooooooooooooooooooo",
"ooooooooooooooooooooooo  ooooooo",
"oooooooooooooooooooooo  oooooooo",
"ooooooooooooooooooooo X oooooooo",
"oooooooooooooooooooo   ooooooooo",
"oooooooo  oooooooooooooooooooooo",
"ooooooo  ooooooooooooooooooooooo",
"ooooooo oooooooooooooooooooooooo",
"oooooo ooooooooooooooooooooooooo",
"oooooooooooooooooooooooooooo ooo",
"oooooooooooooooooo  oooooooo ooo",
"ooooooooooooooooo X ooooooo . oo",
"ooooooooooooooooo  oooooooo .X o",
"ooooooooooooooooo ooooooooo XX o",
"ooooooooooooooooooooooooooo XX o",
"ooooo ooooooooooooooooooooo X oo",
"ooo  ooooooooooooooooooooooo  oo",
"oooooooooooooooooooooooooooo ooo",
"ooooooooooooooooo oooooooooooooo",
"oooooooooooooooo  oooooooooooooo",
"ooooooooooooooo X oooooooooooooo",
"ooooooooooooooo  ooooooooooooooo"
};
