/* XPM */
static char *result[] = {
/* columns rows colors chars-per-pixel */
"32 32 63 1 ",
"  c #F6590E",
". c #F75A0F",
"X c #F75B0F",
"o c #F75B10",
"O c #F75C10",
"+ c #F65D10",
"@ c #F75D10",
"# c #F75D11",
"$ c #F55F10",
"% c #F65E10",
"& c #F65F10",
"* c #F75E11",
"= c #F75E12",
"- c #F85B10",
"; c #F85F12",
": c #EF6D11",
"> c #EF6D12",
", c #EE6E12",
"< c #EF6E12",
"1 c #EF6E13",
"2 c #F36311",
"3 c #F56010",
"4 c #F26410",
"5 c #F36411",
"6 c #F36511",
"7 c #F16711",
"8 c #F86013",
"9 c #F86315",
"0 c #F86416",
"q c #F86516",
"w c #F96617",
"e c #F06A11",
"r c #F36913",
"t c #F96718",
"y c #F96819",
"u c #F96919",
"i c #F9691A",
"p c #FA6C1C",
"a c #FA6D1D",
"s c #F96E1D",
"d c #FA6E1D",
"f c #EC7312",
"g c #EC7412",
"h c #ED7414",
"j c #EE7616",
"k c #FA701E",
"l c #FA711F",
"z c #F47C1F",
"x c #FA7220",
"c c #FC7925",
"v c #FC7A25",
"b c #FC7B27",
"n c #FB7E28",
"m c #FC7E29",
"M c #FC7F29",
"N c #FD812B",
"B c #FD822B",
"V c #FD822C",
"C c #FD842D",
"Z c #FE8A31",
"A c #FD8F33",
"S c #FF9237",
"D c None",
/* pixels */
"DDDDDDDDDDDDDDDDDDDDDDDDDDDDDDDD",
"DDDDDDDDDDDDDDDDDDDDODDDDDDDDDDD",
"DDDDDDDDDDDDDDDDDDDOODDDDDDDDDDD",
"DDDDDDDDDDDDDDDDDDOmtDDDDDDDDDDD",
"DDDDDDDDDDDDDDDDDDOtDDDDDDDDDDDD",
"DDDDDDDDDDDDDDDDDOODDDDDDDDDDDDD",
"DDDDDDDDDDDDDDDDDOODDDDDDDDDDDDD",
"DDDDDDDDDDDDDDDDDDDDDDDD.OODDDDD",
"DDDDDDDDDDDDDDDDDDDDDDDauXDDDDDD",
"DDDDDDDDDDDDDDDDDDDDDD cv DDDDDD",
"DDDDDDDDDDDDDDDDDDDDDD.dxDDDDDDD",
"DDDDDDDDDD33OODDDDDDDOOXDDDODDDD",
"DDDDDDDDD%7>oDDDDDDDDODDDDD$ODDD",
"DDDDDDDD%rjeoDDDDDDDDDDDDD5,&DDD",
"DDDDDDD-4zb.DDDDDDDDDDDDDD2g<ODD",
"DDDDDDDOO*=DDDDDDDDDDDDDDD6f:ODD",
"DDDDDDOOODDDDDDDDDODDDDDD6h1+DDD",
"DDDDDODDDDDDDDDDD#ODDDDDDsAnXDDD",
"DDDDDDDDDDDDDDDD=B9DDDDDDkSNXDDD",
"DDDDDDDDDDDDDDDD=ZqDDDDDDlCqDDDD",
"DDDDDDDDDDDDDDDD@yDDDDDDDwqXDDDD",
"DDDDDDDDDDDDDDDDOXDDDDDDDDXODDDD",
"DDDDDDDDDDDDDDDDODDDDDDDDDDODDDD",
"DDDDDDDDDDDDDDDDDDDDDDDDDDDDDDDD",
"DDDDDDDDOODDDDDDDDDDODDDDDDDDDDD",
"DDDDDDDOODDDDDDDDDDDODDDDDDDDDDD",
"DDDDDOODDDDDDDDDDDp8DDDDDDDDDDDD",
"DDDDODDDDDDDDDDDDiMtDDDDDDDDDDDD",
"DDDDDDDDDDDDDDDD*Z0DDDDDDDDDDDDD",
"DDDDDDDDDDDDDDDDwV0DDDDDDDDDDDDD",
"DDDDDDDDDDDDDDD;C9DDDDDDDDDDDDDD",
"DDDDDDDDDDDDDDDO*DDDDDDDDDDDDDDD"
};
