/* XPM */
static char *result[] = {
/* columns rows colors chars-per-pixel */
"32 32 147 2 ",
"   c #3C2C2A",
".  c #552723",
"X  c #562823",
"o  c #592B26",
"O  c #5A2E29",
"+  c #43302E",
"@  c #52322F",
"#  c #553431",
"$  c #583734",
"%  c #573937",
"&  c #5C3A37",
"*  c #553C3A",
"=  c #5D3E3B",
"-  c #75332B",
";  c #6D3832",
":  c #653E3A",
">  c #703730",
",  c #703B35",
"<  c #7B3C35",
"1  c #733F38",
"2  c #7C3F38",
"3  c #5C413E",
"4  c #61413D",
"5  c #6B413B",
"6  c #73423C",
"7  c #7D433C",
"8  c #5F4541",
"9  c #544947",
"0  c #554D4D",
"q  c #5A4D4C",
"w  c #5C514F",
"e  c #5B5453",
"r  c #5F5B5A",
"t  c #634541",
"y  c #694641",
"u  c #624E4C",
"i  c #6E4D4A",
"p  c #754540",
"a  c #7B4741",
"s  c #744943",
"d  c #7B4943",
"f  c #744E4A",
"g  c #7B4F49",
"h  c #63504E",
"j  c #76514D",
"k  c #7D514C",
"l  c #655553",
"z  c #6B5552",
"x  c #6E5957",
"c  c #675D5C",
"v  c #6C5F5D",
"b  c #735A57",
"n  c #7A5B57",
"m  c #735C59",
"M  c #795D5A",
"N  c #65605F",
"B  c #6B605F",
"V  c #74605E",
"C  c #7A615E",
"Z  c #6D6361",
"A  c #6C6B6A",
"S  c #746563",
"D  c #7D6461",
"F  c #7B6967",
"G  c #716968",
"H  c #7E6C6A",
"J  c #767575",
"K  c #7C7574",
"L  c #7E7E7E",
"P  c #823C33",
"I  c #84463F",
"U  c #8C453C",
"Y  c #92463D",
"T  c #9A473E",
"R  c #97483F",
"E  c #9B493F",
"W  c #854740",
"Q  c #864B44",
"!  c #8B4D46",
"~  c #8B4F48",
"^  c #934E46",
"/  c #9C4A40",
"(  c #84524C",
")  c #8C534C",
"_  c #90544D",
"`  c #845651",
"'  c #8C5752",
"]  c #875954",
"[  c #8A5954",
"{  c #835E5B",
"}  c #8B5F5A",
"|  c #935B54",
" . c #9A5C55",
".. c #925F59",
"X. c #82625E",
"o. c #8D625D",
"O. c #92615C",
"+. c #9D655F",
"@. c #816460",
"#. c #8C6561",
"$. c #866966",
"%. c #8B6966",
"&. c #846C6A",
"*. c #8C6D6A",
"=. c #926661",
"-. c #936A66",
";. c #9C6964",
":. c #946E6A",
">. c #9C6D68",
",. c #8E716E",
"<. c #93716E",
"1. c #98726E",
"2. c #817472",
"3. c #857F7F",
"4. c #967572",
"5. c #9A7672",
"6. c #977875",
"7. c #9C7975",
"8. c #9E7C79",
"9. c #A26760",
"0. c #A46B64",
"q. c #AE6C64",
"w. c #A36E68",
"e. c #AE6F68",
"r. c #B26D65",
"t. c #A1726D",
"y. c #AA726C",
"u. c #B5746C",
"i. c #B9746C",
"p. c #A67671",
"a. c #AE7771",
"s. c #A47975",
"d. c #AB7C76",
"f. c #A47E7B",
"g. c #AD7E79",
"h. c #B37A74",
"j. c #BC7B73",
"k. c #B17F7A",
"l. c #BA7F78",
"z. c #A5807D",
"x. c #A9827E",
"c. c #B3817C",
"v. c #BB8079",
"b. c #8A8483",
"n. c #8A8989",
"m. c #908D8D",
"M. c #939292",
/* pixels */
"! T T T T T E E E T T T T E 5 o p Y / T T T T E / E T T T T W , ",
") ! ~ ~ ~ ) ) Y ) ~ ~ ! ~ ) k O k ) ~ ~ ~ ~ [ W ^ ) ! ~ ~ ! ' W ",
"o.4.#.{ <.y.) P k 1.:.M :.1.| X 6 :.1.n :.1.0.7 < #.5.{ #.1.e.U ",
"O.<.Z K ,.h.) P k 6.m K *.d. .X 6 5.M K &.7.r.7 < -.%.G K 4.u.U ",
"=.<.e K *.j.) P g s.q J &.g. .X 6 7.z A H f.q.7 < :.D c K 5.u.U ",
"=.f.*.X.m.i.) P g f.7.M f.d. .X 6 5.f.M 7.f.q.7 < -.x.X.*.f.u.U ",
"+.r.i.i.r.q.( U [ r.i.i.r.r.` O ( q.r.u.i.q.+.7 ! 9.r.i.i.r.0.U ",
"4 4 4 4 4 3 8 U y 4 3 4 4 4 3 O y 4 4 : : t 8 6 a 3 4 3 : 3 8 1 ",
"f s s s s f j U k s s s s s i O f s p s s p j a ~ s p s p s f a ",
"o.-.#.o.:.0.( P k -.=.{ -.>.| X p =.:.{ -.-.0.7 7 #.:.o.#.-.0.U ",
"o.6.m S 4.h.) P g 7.D Z *.d. .X 6 5.$.Z &.s.q.7 < -.:.Z F 6.u.U ",
"=.%.r n.&.h.) P k 5.w n.&.d. .X 6 7.u L 2.7.q.7 < :.m A 3.4.u.U ",
"=.z.C x z.h.) P g f.:.h 8.d. .X 6 s.6.u *.f.q.7 < -.f.z @.z.u.U ",
"0.u.j.j.u.u.` P [ u.j.j.j.u.[ o g e.j.j.j.u.0.7 W w.i.j.j.u.e.U ",
"# # # # # # * U = # # # # # * o # # # # # # * 1 a # # # # # % 1 ",
"# # # @ @ # 3 U = @ @ @ @ @ 3 O : @ @ @ @ @ * 6 a # @ # # # % 1 ",
"o.o.} o.o.;.` P ( o.o.o.O.=.' X d o.o.} o.#.+.7 I } o.} } o.9.W ",
"o.7.V x 6.h.) P k 7.$.l 4.d. .X 1 4.:.l *.s.r.7 < %.6.x F 7.u.U ",
"=.%.Z M.$.h.) P k 5.w M.H d. .X 1 7.l n.2.7.q.7 < >.m J b.*.i.U ",
"#.f.l l 8.h.) P g f.C 0 6.d. .X 6 7.*.9 &.z.q.7 < -.7.q S f.u.U ",
";.h.l.j.h.u.` P ` h.l.h.l.u.| X d p.l.h.l.h.q.7 7 w.l.l.l.h.u.U ",
"k ( ( ( ( ( f U k ( ( ( ( ( i O g ( ( ( ( ( j a Q g ( ( ~ ( k 7 ",
"4 4 4 4 4 4 8 U y 4 4 4 4 3 3 O y : = 4 : : t 6 d 8 4 : : 4 8 1 ",
"[ ` [ ` [ } ( U ` ` [ ` [ [ ` o g ] ] ] ] ] O.a W ] ] ] ] ] ..W ",
"=.7.D m 7.a.) P g 7.*.z 4.s. .X 1 1.4.j :.7.e.2 < =.7.m D 7.a.U ",
"=.%.Z n.&.h.) P g 5.l M.H d. .X p 5.z n.2.7.q.7 2 :.M K b.:.j.P ",
"#.7.q x 6.h.) P g f.z e *.g. .X 1 7...q H f.r.2 2 :.,.0 Z f.u.U ",
";.g.g.s.c.h.) P ` d.c.y.c.h.| X p p.m.w.k.d.e.2 2 ;.k.p.d.k.j.P ",
"'  .+. . .| j U `  . . . . .j O k |  . . . .[ d ~ |  . . . .| W ",
": : : 5 : : : U : : : : : : * o : : : : : : : 2 2 : : : : : 4 ; ",
"W U Y U U U Y Y U Y ^ Y W W = . 1 W W ^ P ! ^ W ^ P W Y U W a ; ",
"+ + + + + + + + + + + + + +   . > ; > > > > > , > > ; ; > ; ; - "
};
