/* XPM */
static char *result[] = {
/* columns rows colors chars-per-pixel */
"32 32 54 1 ",
"  c #1E222D",
". c #2E2426",
"X c #2E2927",
"o c #23252C",
"O c #2C2629",
"+ c #25282F",
"@ c #2D2929",
"# c #322425",
"$ c #3C2622",
"% c #342B25",
"& c #3A2D24",
"* c #312328",
"= c #322C29",
"- c #3E3123",
"; c #393229",
": c #44251F",
"> c #462B1F",
", c #4C2D1D",
"< c #44301E",
"1 c #4D331C",
"2 c #4F391E",
"3 c #5C3C17",
"4 c #54341B",
"5 c #58371A",
"6 c #563A1B",
"7 c #5B3B1B",
"8 c #603F16",
"9 c #603F19",
"0 c #442521",
"q c #452B21",
"w c #4C2C21",
"e c #443423",
"r c #4B3422",
"t c #4D3B25",
"y c #543520",
"u c #533B23",
"i c #5D3C21",
"p c #5E411A",
"a c #634216",
"s c #694716",
"d c #6D4A16",
"f c #63421B",
"g c #68471B",
"h c #66491B",
"j c #6C4B1B",
"k c #704E1C",
"l c #74521C",
"z c #78551E",
"x c #5E4122",
"c c #644422",
"v c #6C4A22",
"b c #704F21",
"n c #745221",
"m c #7D5A21",
/* pixels */
"5,:101w54594143%&85f0j3il77f0,>4",
"6,,w,f454771977%%3580f5cd53j44:5",
"4,1,yl584f91bi8%%5ffqc4ck47jq157",
"1>44yg44qi4in57$<43d5f16jr4g0466",
"..q&ooo  oora41o54ffeoo o oo*;o+",
"#.ri%=O==XOrg41op36a,%XO=@%XuuO=",
"4:7kij1g77w5d41@p37j5f4,39f75l47",
",,9c785j59f6j4p<3a7j4f7,a7f,ym43",
"1,3g185j7g97d5a&7f5d5955a99w4m55",
"1,9l135gw89yf43&79ck7v95a39fym4x",
",,4by34jw8975,3&57bj5bf5sy5jcl47",
"4,5v435k9997743%%5bkyn94s4,fvl57",
"4,5vy9yk4995993%%3vl5nfxk74gvn67",
"4,4bc85k9795787%%a6swg85s59fcc6p",
"4,3bif5gc997ur8%%8qt9k74s59fcgq7",
"1,9kyg4gc895e$s&%5#%xd5587fxcf:7",
",,5j4k4gj3p$-@6-&4%%rd3,35c4ifq7",
",>5j5k4fy39e<&6&%1&;td74f,97if>4",
",>5j6k4ay73vp1s%%7r2ik95z97f>44,",
"4,7b5g7af8fvf6a%-a7a97g0kj990473",
",,8k5a4ai3gvf73O%a3s733rzvfa:555",
",,3g4p4a47jcj51 -p4a5847lv7g5f47",
"$04eX%@@@%uuk71o45:p>%XX%@@%r;oX",
".&Oo  oo o+qk42O13:3$+o ++o ;+  ",
"$,c3-e6pwpcwc,1o5507>40rsp21r1$e",
"4,f97gip59fy741o39y51705h77fq573",
",,3f4d5759jwf51o67w59g5yh47f6373",
",>fj7k4p4kgi91r &3,4ig97d73f177a",
"1,fkfa535b57344o%p,43jfid37f475f",
"4,3jf847cn,4874%%f,47v9yd7ff157p",
"4,3a4a49y871f3a-%a1a7gg0a3gg4317",
"44334a,3488qn5a&%a,a43f0a7vf44>7"
};
